<svg width="24" height="24" viewBox="0 0 24 24" fill="none" xmlns="http://www.w3.org/2000/svg">
<g clip-path="url(#clip0_4_615)">
<path d="M23 12.5195C22.9875 12.6445 22.9726 12.7694 22.9627 12.8946C22.7486 15.5567 21.5682 18.0487 19.6437 19.9017C18.139 21.351 16.3646 22.3007 14.3206 22.7509C13.3919 22.9564 12.4398 23.0353 11.4899 22.9856C8.78108 22.8411 6.43415 21.842 4.44914 19.9882C3.09875 18.7235 2.13663 17.2044 1.5519 15.4487C1.23302 14.4899 1.05071 13.491 1.01033 12.4814C0.929654 10.5648 1.32136 8.75068 2.18545 7.03892C2.66412 6.09099 3.28008 5.2188 4.01346 4.45052C5.30435 3.09448 6.83923 2.12498 8.6181 1.54203C9.61451 1.21676 10.6533 1.03956 11.7013 1.01613C11.7265 1.01317 11.7514 1.00777 11.7755 1L12.2193 1C12.2364 1.00779 12.2545 1.01315 12.2731 1.01592C12.7865 1.0255 13.2984 1.07327 13.8046 1.15884C14.8914 1.33656 15.9446 1.67944 16.9276 2.17557C19.3134 3.37768 21.1838 5.40148 22.1936 7.87364C22.6181 8.9115 22.8779 10.0093 22.9635 11.1272C22.973 11.2494 22.9877 11.3711 23 11.4931V12.5195ZM22.1166 12.0008C22.1367 6.54346 17.6922 1.89418 12.0037 1.88954C6.39555 1.8849 1.90569 6.43239 1.87745 11.9515C1.84921 17.5038 6.33767 22.1091 11.9792 22.1182C17.6874 22.1273 22.1395 17.4657 22.1166 12.0008Z" fill="#F3772A" stroke="#F3772A" stroke-width="0.5"/>
<path d="M10.012 13.6296C9.9108 13.3259 9.8204 13.0258 9.74085 12.7293C9.6613 12.4328 9.5926 12.1254 9.53475 11.8072L8.80796 12.2954L8.80796 14.1178L10.012 13.6296ZM12.2575 5.41805C11.7657 5.93873 11.3734 6.62755 11.0805 7.4845C10.7876 8.34146 10.6412 9.24 10.6412 10.1801C10.6412 10.7876 10.6954 11.3842 10.8039 11.97C10.9124 12.5557 11.0606 13.0583 11.2487 13.4778L13.7111 13.4669C13.8991 13.0475 14.0473 12.5449 14.1558 11.9591C14.2643 11.3733 14.3185 10.7767 14.3185 10.1693C14.3185 9.22915 14.1739 8.33242 13.8846 7.47908C13.5953 6.62574 13.2048 5.93873 12.7131 5.41805C12.6842 5.38912 12.6498 5.36562 12.61 5.34754C12.5703 5.32946 12.5287 5.32042 12.4853 5.32042C12.4419 5.32042 12.4003 5.32946 12.3605 5.34754C12.3208 5.36562 12.2864 5.38912 12.2575 5.41805ZM12.4744 10.4079C12.1418 10.4079 11.8543 10.2868 11.6121 10.0445C11.3698 9.80226 11.2487 9.5148 11.2487 9.18214C11.2487 8.84948 11.3716 8.56022 11.6175 8.31434C11.8634 8.06846 12.1526 7.94552 12.4853 7.94552C12.8179 7.94552 13.1054 8.06665 13.3477 8.30892C13.5899 8.55118 13.7111 8.83864 13.7111 9.1713C13.7111 9.50395 13.5881 9.79322 13.3422 10.0391C13.0964 10.285 12.8071 10.4079 12.4744 10.4079ZM14.9477 13.6188L16.1626 14.1178L16.1626 12.2954L15.4358 11.8072C15.378 12.1254 15.3075 12.431 15.2243 12.7239C15.1411 13.0167 15.0489 13.3151 14.9477 13.6188ZM12.9626 4.01871C13.8159 4.75635 14.4613 5.66212 14.8989 6.73602C15.3364 7.80993 15.5551 9.03389 15.5551 10.4079L16.846 11.2649C17.0196 11.3806 17.1533 11.5288 17.2474 11.7096C17.3414 11.8904 17.3884 12.0821 17.3884 12.2845L17.3884 15.0181C17.3884 15.2351 17.2998 15.4068 17.1226 15.5334C16.9454 15.6599 16.7556 15.6798 16.5531 15.593L14.3402 14.7035H10.6304L8.41745 15.593C8.21497 15.6798 8.02333 15.6617 7.84253 15.5388C7.66174 15.4159 7.57134 15.2459 7.57134 15.029L7.57134 12.2954C7.57134 12.0929 7.62016 11.8995 7.71779 11.715C7.81541 11.5306 7.95101 11.3806 8.12457 11.2649L9.41543 10.4079C9.41543 9.03389 9.63419 7.80993 10.0717 6.73602C10.5092 5.66212 11.1546 4.75634 12.008 4.01871C12.0731 3.96809 12.1472 3.92651 12.2304 3.89397C12.3135 3.86142 12.3985 3.84515 12.4853 3.84515C12.5721 3.84515 12.657 3.86142 12.7402 3.89397C12.8234 3.92651 12.8975 3.96809 12.9626 4.01871ZM10.6412 17.0141C10.6412 16.5078 10.822 16.0703 11.1836 15.7015C11.5452 15.3327 11.9791 15.1483 12.4853 15.1483C12.9915 15.1483 13.4254 15.3327 13.787 15.7015C14.1486 16.0703 14.3294 16.5078 14.3294 17.0141C14.3294 17.3757 14.1829 17.8331 13.89 18.3863C13.5972 18.9395 13.1289 19.6392 12.4853 20.4853C11.8417 19.6392 11.3734 18.9395 11.0805 18.3863C10.7876 17.8331 10.6412 17.3757 10.6412 17.0141ZM11.867 17.0032C11.867 17.1479 11.9266 17.3521 12.046 17.6161C12.1653 17.8801 12.3081 18.1241 12.4744 18.3483C12.6408 18.1241 12.7854 17.8819 12.9083 17.6215C13.0313 17.3612 13.0927 17.1587 13.0927 17.0141C13.0927 16.8405 13.0349 16.6886 12.9192 16.5585C12.8035 16.4283 12.6588 16.3632 12.4853 16.3632C12.3117 16.3632 12.1653 16.4265 12.046 16.553C11.9266 16.6796 11.867 16.8297 11.867 17.0032Z" fill="#F3772A"/>
</g>
<defs>
<clipPath id="clip0_4_615">
<rect width="24" height="24" fill="white"/>
</clipPath>
</defs>
</svg>
