<svg width="24" height="24" viewBox="0 0 24 24" fill="none" xmlns="http://www.w3.org/2000/svg">
<g clip-path="url(#clip0_4_1124)">
<path d="M23 12.5195C22.9875 12.6445 22.9726 12.7694 22.9627 12.8946C22.7486 15.5567 21.5682 18.0487 19.6437 19.9017C18.139 21.351 16.3646 22.3007 14.3206 22.7509C13.3919 22.9564 12.4398 23.0353 11.4899 22.9856C8.78108 22.8411 6.43415 21.842 4.44914 19.9882C3.09875 18.7235 2.13663 17.2044 1.5519 15.4487C1.23302 14.4899 1.05071 13.491 1.01033 12.4814C0.929654 10.5648 1.32136 8.75068 2.18545 7.03892C2.66412 6.09099 3.28008 5.2188 4.01346 4.45052C5.30435 3.09448 6.83923 2.12498 8.6181 1.54203C9.61451 1.21676 10.6533 1.03956 11.7013 1.01613C11.7265 1.01317 11.7514 1.00777 11.7755 1L12.2193 1C12.2364 1.00779 12.2545 1.01315 12.2731 1.01592C12.7865 1.0255 13.2984 1.07327 13.8046 1.15884C14.8914 1.33656 15.9446 1.67944 16.9276 2.17557C19.3134 3.37768 21.1838 5.40148 22.1936 7.87364C22.6181 8.9115 22.8779 10.0093 22.9635 11.1272C22.973 11.2494 22.9877 11.3711 23 11.4931V12.5195ZM22.1166 12.0008C22.1367 6.54346 17.6922 1.89418 12.0037 1.88954C6.39555 1.8849 1.90569 6.43239 1.87745 11.9515C1.84921 17.5038 6.33767 22.1091 11.9792 22.1182C17.6874 22.1273 22.1395 17.4657 22.1166 12.0008Z" fill="#F3772A" stroke="#F3772A" stroke-width="0.5"/>
<path d="M12.0639 12.9932L8.27626 16.7808C8.1484 16.9087 7.99658 16.9726 7.82078 16.9726C7.64498 16.9726 7.49315 16.9087 7.3653 16.7808C7.23744 16.653 7.17352 16.5011 7.17352 16.3253C7.17352 16.1495 7.23744 15.9977 7.3653 15.8699L13.0548 10.1963H11.3927V10.8356C11.3927 11.0167 11.3314 11.1686 11.2089 11.2911C11.0864 11.4136 10.9346 11.4749 10.7534 11.4749C10.5723 11.4749 10.4205 11.4136 10.2979 11.2911C10.1754 11.1686 10.1142 11.0167 10.1142 10.8356V9.55708C10.1142 9.37595 10.1754 9.22412 10.2979 9.1016C10.4205 8.97907 10.5723 8.91781 10.7534 8.91781H13.8539C14.0244 8.91781 14.1868 8.94977 14.3413 9.0137C14.4958 9.07763 14.6317 9.16819 14.7489 9.28539L16.6667 11.1872C16.8798 11.4003 17.1275 11.5788 17.4098 11.7226C17.6922 11.8664 17.9985 11.9703 18.3288 12.0342C18.5099 12.0662 18.667 12.1488 18.8002 12.282C18.9334 12.4151 19 12.5723 19 12.7534C19 12.9346 18.9254 13.0837 18.7763 13.2009C18.6271 13.3181 18.4619 13.3661 18.2808 13.3447C17.8014 13.2808 17.3592 13.153 16.9543 12.9612C16.5495 12.7694 16.1766 12.5084 15.8356 12.1781L15.1963 11.5068L13.79 12.9132L14.637 13.7603C14.7861 13.9094 14.8474 14.0879 14.8208 14.2957C14.7941 14.5034 14.6903 14.6606 14.5091 14.7671L11.6005 16.4452C11.4513 16.5304 11.2888 16.5518 11.113 16.5091C10.9372 16.4665 10.8067 16.3706 10.7215 16.2215C10.6362 16.0723 10.6176 15.9098 10.6655 15.734C10.7135 15.5582 10.812 15.4277 10.9612 15.3425L13.1507 14.0799L12.0639 12.9932ZM6.91781 12.7534C6.73668 12.7534 6.58486 12.6922 6.46233 12.5696C6.3398 12.4471 6.27854 12.2953 6.27854 12.1142C6.27854 11.933 6.3398 11.7812 6.46233 11.6587C6.58486 11.5361 6.73668 11.4749 6.91781 11.4749H8.83562C9.01674 11.4749 9.16857 11.5361 9.2911 11.6587C9.41362 11.7812 9.47489 11.933 9.47489 12.1142C9.47489 12.2953 9.41362 12.4471 9.2911 12.5696C9.16857 12.6922 9.01674 12.7534 8.83562 12.7534H6.91781ZM5.63927 10.8356C5.45814 10.8356 5.30632 10.7744 5.18379 10.6518C5.06126 10.5293 5 10.3775 5 10.1963C5 10.0152 5.06126 9.86339 5.18379 9.74087C5.30632 9.61834 5.45814 9.55708 5.63927 9.55708H7.55708C7.7382 9.55708 7.89003 9.61834 8.01256 9.74087C8.13508 9.86339 8.19635 10.0152 8.19635 10.1963C8.19635 10.3775 8.13508 10.5293 8.01256 10.6518C7.89003 10.7744 7.7382 10.8356 7.55708 10.8356H5.63927ZM16.8105 9.55708C16.4589 9.55708 16.1553 9.43189 15.8995 9.18151C15.6438 8.93113 15.516 8.63014 15.516 8.27854C15.516 7.92694 15.6438 7.62595 15.8995 7.37557C16.1553 7.12519 16.4589 7 16.8105 7C17.1621 7 17.4658 7.12519 17.7215 7.37557C17.9772 7.62595 18.105 7.92694 18.105 8.27854C18.105 8.63014 17.9772 8.93113 17.7215 9.18151C17.4658 9.43189 17.1621 9.55708 16.8105 9.55708ZM6.91781 8.91781C6.73668 8.91781 6.58486 8.85654 6.46233 8.73402C6.3398 8.61149 6.27854 8.45967 6.27854 8.27854C6.27854 8.09741 6.3398 7.94559 6.46233 7.82306C6.58486 7.70053 6.73668 7.63927 6.91781 7.63927H8.83562C9.01674 7.63927 9.16857 7.70053 9.2911 7.82306C9.41362 7.94559 9.47489 8.09741 9.47489 8.27854C9.47489 8.45967 9.41362 8.61149 9.2911 8.73402C9.16857 8.85654 9.01674 8.91781 8.83562 8.91781H6.91781Z" fill="#F3772A"/>
</g>
<defs>
<clipPath id="clip0_4_1124">
<rect width="24" height="24" fill="white"/>
</clipPath>
</defs>
</svg>
