<svg width="24" height="24" viewBox="0 0 24 24" fill="none" xmlns="http://www.w3.org/2000/svg">
<g clip-path="url(#clip0_4_950)">
<path d="M23 12.5195C22.9875 12.6445 22.9726 12.7694 22.9627 12.8946C22.7486 15.5567 21.5682 18.0487 19.6437 19.9017C18.139 21.351 16.3646 22.3007 14.3206 22.7509C13.3919 22.9564 12.4398 23.0353 11.4899 22.9856C8.78108 22.8411 6.43415 21.842 4.44914 19.9882C3.09875 18.7235 2.13663 17.2044 1.5519 15.4487C1.23302 14.4899 1.05071 13.491 1.01033 12.4814C0.929654 10.5648 1.32136 8.75068 2.18545 7.03892C2.66412 6.09099 3.28008 5.2188 4.01346 4.45052C5.30435 3.09448 6.83923 2.12498 8.6181 1.54203C9.61451 1.21676 10.6533 1.03956 11.7013 1.01613C11.7265 1.01317 11.7514 1.00777 11.7755 1L12.2193 1C12.2364 1.00779 12.2545 1.01315 12.2731 1.01592C12.7865 1.0255 13.2984 1.07327 13.8046 1.15884C14.8914 1.33656 15.9446 1.67944 16.9276 2.17557C19.3134 3.37768 21.1838 5.40148 22.1936 7.87364C22.6181 8.9115 22.8779 10.0093 22.9635 11.1272C22.973 11.2494 22.9877 11.3711 23 11.4931V12.5195ZM22.1166 12.0008C22.1367 6.54346 17.6922 1.89418 12.0037 1.88954C6.39555 1.8849 1.90569 6.43239 1.87745 11.9515C1.84921 17.5038 6.33767 22.1091 11.9792 22.1182C17.6874 22.1273 22.1395 17.4657 22.1166 12.0008Z" fill="#F3772A" stroke="#F3772A" stroke-width="0.5"/>
<path d="M7.35234 18C6.78567 18 6.38289 17.7472 6.144 17.2417C5.90511 16.7361 5.96345 16.2667 6.319 15.8333L10.019 11.3333V7.33333H9.35234C9.16345 7.33333 9.00511 7.26944 8.87734 7.14167C8.74956 7.01389 8.68567 6.85556 8.68567 6.66667C8.68567 6.47778 8.74956 6.31944 8.87734 6.19167C9.00511 6.06389 9.16345 6 9.35234 6H14.6857C14.8746 6 15.0329 6.06389 15.1607 6.19167C15.2884 6.31944 15.3523 6.47778 15.3523 6.66667C15.3523 6.85556 15.2884 7.01389 15.1607 7.14167C15.0329 7.26944 14.8746 7.33333 14.6857 7.33333H14.019V11.3333L17.719 15.8333C18.0746 16.2667 18.1329 16.7361 17.894 17.2417C17.6551 17.7472 17.2523 18 16.6857 18H7.35234ZM7.35234 16.6667H16.6857L12.6857 11.8V7.33333H11.3523V11.8L7.35234 16.6667Z" fill="#F3772A"/>
</g>
<defs>
<clipPath id="clip0_4_950">
<rect width="24" height="24" fill="white"/>
</clipPath>
</defs>
</svg>
