<svg width="24" height="24" viewBox="0 0 24 24" fill="none" xmlns="http://www.w3.org/2000/svg">
<g clip-path="url(#clip0_4_237)">
<path d="M23.0001 12.5416C22.988 12.6604 22.9733 12.7791 22.9638 12.8981C22.7576 15.4635 21.6532 17.8742 19.8448 19.7063C18.2884 21.2801 16.4279 22.3005 14.2633 22.7675C13.4252 22.9447 12.569 23.0212 11.7129 22.9954C10.0667 22.953 8.50568 22.5667 7.04067 21.8174C4.93039 20.7385 3.32472 19.1472 2.22366 17.0435C1.6617 15.971 1.30003 14.8319 1.1189 13.6363C1.05136 13.1849 1.01269 12.7296 1.00312 12.2733C0.962774 10.5334 1.31415 8.87667 2.05725 7.30305C3.11516 5.08151 4.88338 3.27553 7.08263 2.17033C8.06346 1.67643 9.11405 1.33527 10.198 1.15867C10.7048 1.07317 11.2172 1.02553 11.731 1.01613C11.7533 1.01324 11.7753 1.00783 11.7964 1L12.22 1C12.2406 1.00782 12.2622 1.01324 12.2841 1.01613C13.126 1.03194 13.963 1.14918 14.7768 1.36531C16.7782 1.89352 18.4967 2.90331 19.9325 4.39467C21.1159 5.62192 21.9669 7.04896 22.4855 8.6758C22.7376 9.46173 22.8978 10.2742 22.963 11.0969C22.9729 11.2227 22.9876 11.3483 23.0001 11.4739V12.5416ZM11.9961 1.88707C6.31694 1.90018 1.75125 6.57364 1.88015 12.2436C2.00319 17.6552 6.44563 22.1575 12.0687 22.1224C17.7702 22.0865 22.2731 17.3522 22.119 11.7239C21.972 6.36276 17.5731 1.89937 11.9961 1.88707Z" fill="#F3772A" stroke="#F3772A" stroke-width="0.5"/>
<path d="M12.3003 19.608C8.28624 19.6026 5.0002 16.3501 5 12.3044C5 8.22589 8.33526 4.97295 12.3594 5.00017C16.336 5.02698 19.6582 8.2773 19.6138 12.3885C19.5707 16.3906 16.3038 19.6086 12.3003 19.608ZM5.87864 12.2955C5.87965 15.8501 8.74654 18.6488 12.1552 18.7268C15.7315 18.8105 18.7348 15.9259 18.7348 12.3064C18.7348 8.76357 15.8731 5.93986 12.4233 5.87938C8.83913 5.81728 5.88591 8.71277 5.87864 12.2955Z" fill="#F3772A" stroke="#F3772A" stroke-width="0.5"/>
<path d="M9 12.2554C9.00182 10.4564 10.4699 8.99497 12.2764 9.00001C14.0984 9.00505 15.5537 10.5026 15.5263 12.3096C15.4991 14.1039 14.0187 15.5329 12.2372 15.5208C10.4592 15.5083 8.99798 14.043 9 12.2554ZM14.6491 12.2638C14.6424 10.9373 13.5774 9.87942 12.2689 9.87842C10.9459 9.87842 9.92907 10.934 9.88349 12.1767C9.83709 13.4616 10.8473 14.6372 12.261 14.6414C13.6042 14.6454 14.6378 13.5646 14.6491 12.2638Z" fill="#F3772A" stroke="#F3772A" stroke-width="0.5"/>
</g>
<defs>
<clipPath id="clip0_4_237">
<rect width="24" height="24" fill="white"/>
</clipPath>
</defs>
</svg>
