<svg width="24" height="24" viewBox="0 0 24 24" fill="none" xmlns="http://www.w3.org/2000/svg">
<g clip-path="url(#clip0_4_601)">
<path d="M23 12.5195C22.9875 12.6445 22.9726 12.7694 22.9627 12.8946C22.7486 15.5567 21.5682 18.0487 19.6437 19.9017C18.139 21.351 16.3646 22.3007 14.3206 22.7509C13.3919 22.9564 12.4398 23.0353 11.4899 22.9856C8.78108 22.8411 6.43415 21.842 4.44914 19.9882C3.09875 18.7235 2.13663 17.2044 1.5519 15.4487C1.23302 14.4899 1.05071 13.491 1.01033 12.4814C0.929654 10.5648 1.32136 8.75068 2.18545 7.03892C2.66412 6.09099 3.28008 5.2188 4.01346 4.45052C5.30435 3.09448 6.83923 2.12498 8.6181 1.54203C9.61451 1.21676 10.6533 1.03956 11.7013 1.01613C11.7265 1.01317 11.7514 1.00777 11.7755 1L12.2193 1C12.2364 1.00779 12.2545 1.01315 12.2731 1.01592C12.7865 1.0255 13.2984 1.07327 13.8046 1.15884C14.8914 1.33656 15.9446 1.67944 16.9276 2.17557C19.3134 3.37768 21.1838 5.40148 22.1936 7.87364C22.6181 8.9115 22.8779 10.0093 22.9635 11.1272C22.973 11.2494 22.9877 11.3711 23 11.4931V12.5195ZM22.1166 12.0008C22.1367 6.54346 17.6922 1.89418 12.0037 1.88954C6.39555 1.8849 1.90569 6.43239 1.87745 11.9515C1.84921 17.5038 6.33767 22.1091 11.9792 22.1182C17.6874 22.1273 22.1395 17.4657 22.1166 12.0008Z" fill="#F3772A" stroke="#F3772A" stroke-width="0.5"/>
<path d="M6.75 10.05C6.75 9.77152 6.65781 9.50445 6.49372 9.30754C6.32962 9.11062 6.10706 9 5.875 9C5.64294 9 5.42038 9.11062 5.25628 9.30754C5.09219 9.50445 5 9.77152 5 10.05C5 11.828 6.08267 12.7338 6.757 13.298L6.83167 13.3596C7.625 14.026 7.91667 14.3466 7.91667 14.95C7.91667 15.2285 8.00885 15.4955 8.17295 15.6925C8.33704 15.8894 8.5596 16 8.79167 16C9.02373 16 9.24629 15.8894 9.41039 15.6925C9.57448 15.4955 9.66667 15.2285 9.66667 14.95C9.66667 13.172 8.584 12.2662 7.90967 11.702L7.835 11.6404C7.04167 10.974 6.75 10.652 6.75 10.05ZM10.5417 9C10.7737 9 10.9963 9.11062 11.1604 9.30754C11.3245 9.50445 11.4167 9.77152 11.4167 10.05C11.4167 10.6534 11.7083 10.974 12.5017 11.6404L12.5763 11.702C13.2507 12.2662 14.3333 13.172 14.3333 14.95C14.3333 15.2285 14.2411 15.4955 14.0771 15.6925C13.913 15.8894 13.6904 16 13.4583 16C13.2263 16 13.0037 15.8894 12.8396 15.6925C12.6755 15.4955 12.5833 15.2285 12.5833 14.95C12.5833 14.3466 12.2917 14.026 11.4983 13.3596L11.4237 13.298C10.7493 12.7338 9.66667 11.828 9.66667 10.05C9.66667 9.77152 9.75885 9.50445 9.92295 9.30754C10.087 9.11062 10.3096 9 10.5417 9ZM16.0833 10.05C16.0833 9.77152 15.9911 9.50445 15.8271 9.30754C15.663 9.11062 15.4404 9 15.2083 9C14.9763 9 14.7537 9.11062 14.5896 9.30754C14.4255 9.50445 14.3333 9.77152 14.3333 10.05C14.3333 11.828 15.416 12.7338 16.0903 13.298L16.165 13.3596C16.9583 14.026 17.25 14.3466 17.25 14.95C17.25 15.2285 17.3422 15.4955 17.5063 15.6925C17.6704 15.8894 17.8929 16 18.125 16C18.3571 16 18.5796 15.8894 18.7437 15.6925C18.9078 15.4955 19 15.2285 19 14.95C19 13.172 17.9173 12.2662 17.243 11.702L17.1683 11.6404C16.375 10.974 16.0833 10.6534 16.0833 10.05Z" fill="#F3772A"/>
</g>
<defs>
<clipPath id="clip0_4_601">
<rect width="24" height="24" fill="white"/>
</clipPath>
</defs>
</svg>
