<svg width="24" height="24" viewBox="0 0 24 24" fill="none" xmlns="http://www.w3.org/2000/svg">
<g clip-path="url(#clip0_4_782)">
<path d="M23 12.5195C22.9875 12.6445 22.9726 12.7694 22.9627 12.8946C22.7486 15.5567 21.5682 18.0487 19.6437 19.9017C18.139 21.351 16.3646 22.3007 14.3206 22.7509C13.3919 22.9564 12.4398 23.0353 11.4899 22.9856C8.78108 22.8411 6.43415 21.842 4.44914 19.9882C3.09875 18.7235 2.13663 17.2044 1.5519 15.4487C1.23302 14.4899 1.05071 13.491 1.01033 12.4814C0.929654 10.5648 1.32136 8.75068 2.18545 7.03892C2.66412 6.09099 3.28008 5.2188 4.01346 4.45052C5.30435 3.09448 6.83923 2.12498 8.6181 1.54203C9.61451 1.21676 10.6533 1.03956 11.7013 1.01613C11.7265 1.01317 11.7514 1.00777 11.7755 1L12.2193 1C12.2364 1.00779 12.2545 1.01315 12.2731 1.01592C12.7865 1.0255 13.2984 1.07327 13.8046 1.15884C14.8914 1.33656 15.9446 1.67944 16.9276 2.17557C19.3134 3.37768 21.1838 5.40148 22.1936 7.87364C22.6181 8.9115 22.8779 10.0093 22.9635 11.1272C22.973 11.2494 22.9877 11.3711 23 11.4931V12.5195ZM22.1166 12.0008C22.1367 6.54346 17.6922 1.89418 12.0037 1.88954C6.39555 1.8849 1.90569 6.43239 1.87745 11.9515C1.84921 17.5038 6.33767 22.1091 11.9792 22.1182C17.6874 22.1273 22.1395 17.4657 22.1166 12.0008Z" fill="#F3772A" stroke="#F3772A" stroke-width="0.5"/>
<path d="M14.82 14.37C14.67 14.32 14.555 14.22 14.475 14.07C14.395 13.92 14.38 13.77 14.43 13.62C14.49 13.45 14.5925 13.3275 14.7375 13.2525C14.8825 13.1775 15.035 13.17 15.195 13.23L16.995 13.83C17.155 13.88 17.2725 13.9775 17.3475 14.1225C17.4225 14.2675 17.43 14.425 17.37 14.595C17.32 14.745 17.2225 14.8575 17.0775 14.9325C16.9325 15.0075 16.78 15.02 16.62 14.97L14.82 14.37ZM15 12.6C14.83 12.6 14.6875 12.5425 14.5725 12.4275C14.4575 12.3125 14.4 12.17 14.4 12C14.4 11.83 14.4575 11.6875 14.5725 11.5725C14.6875 11.4575 14.83 11.4 15 11.4H16.8C16.97 11.4 17.1125 11.4575 17.2275 11.5725C17.3425 11.6875 17.4 11.83 17.4 12C17.4 12.17 17.3425 12.3125 17.2275 12.4275C17.1125 12.5425 16.97 12.6 16.8 12.6H15ZM15.195 10.77C15.035 10.82 14.88 10.81 14.73 10.74C14.58 10.67 14.48 10.555 14.43 10.395C14.38 10.225 14.3925 10.0675 14.4675 9.9225C14.5425 9.7775 14.66 9.68 14.82 9.63L16.62 9.03C16.78 8.98 16.9325 8.9925 17.0775 9.0675C17.2225 9.1425 17.32 9.26 17.37 9.42C17.42 9.57 17.41 9.72 17.34 9.87C17.27 10.02 17.155 10.12 16.995 10.17L15.195 10.77ZM7.875 13.2C7.355 13.2 6.9125 13.0175 6.5475 12.6525C6.1825 12.2875 6 11.845 6 11.325C6 11.065 6.05 10.8225 6.15 10.5975C6.25 10.3725 6.385 10.175 6.555 10.005L7.8 8.745V6H9V9C9 9.08 8.9825 9.1575 8.9475 9.2325C8.9125 9.3075 8.87 9.375 8.82 9.435L7.395 10.86C7.335 10.92 7.2875 10.99 7.2525 11.07C7.2175 11.15 7.2 11.235 7.2 11.325C7.2 11.505 7.2675 11.6625 7.4025 11.7975C7.5375 11.9325 7.695 12 7.875 12C7.995 12 8.09 11.98 8.16 11.94C8.23 11.9 8.325 11.83 8.445 11.73C8.665 11.55 8.8825 11.415 9.0975 11.325C9.3125 11.235 9.53 11.19 9.75 11.19C9.97 11.19 10.1875 11.235 10.4025 11.325C10.6175 11.415 10.835 11.55 11.055 11.73C11.175 11.83 11.27 11.9 11.34 11.94C11.41 11.98 11.505 12 11.625 12C11.815 12 11.975 11.9325 12.105 11.7975C12.235 11.6625 12.3 11.505 12.3 11.325C12.3 11.235 12.2825 11.1475 12.2475 11.0625C12.2125 10.9775 12.165 10.905 12.105 10.845L10.68 9.42C10.63 9.36 10.5875 9.295 10.5525 9.225C10.5175 9.155 10.5 9.08 10.5 9V6H11.7V8.73L12.96 9.99C13.13 10.16 13.2625 10.36 13.3575 10.59C13.4525 10.82 13.5 11.065 13.5 11.325C13.5 11.845 13.32 12.2875 12.96 12.6525C12.6 13.0175 12.155 13.2 11.625 13.2C11.295 13.2 11.0275 13.1375 10.8225 13.0125C10.6175 12.8875 10.445 12.765 10.305 12.645C10.155 12.525 10.0375 12.4525 9.9525 12.4275C9.8675 12.4025 9.8 12.39 9.75 12.39C9.66 12.39 9.5675 12.42 9.4725 12.48C9.3775 12.54 9.29 12.595 9.21 12.645C9.07 12.765 8.8975 12.8875 8.6925 13.0125C8.4875 13.1375 8.215 13.2 7.875 13.2ZM10.5 18V15.15C10.5 15.07 10.5175 14.9925 10.5525 14.9175C10.5875 14.8425 10.63 14.775 10.68 14.715L12.105 13.29C12.165 13.23 12.2125 13.16 12.2475 13.08C12.2825 13 12.3 12.915 12.3 12.825C12.3 12.725 12.2825 12.635 12.2475 12.555C12.2125 12.475 12.165 12.405 12.105 12.345L12.96 11.49C13.13 11.66 13.2625 11.86 13.3575 12.09C13.4525 12.32 13.5 12.565 13.5 12.825C13.5 13.085 13.4525 13.325 13.3575 13.545C13.2625 13.765 13.13 13.96 12.96 14.13L11.7 15.39V18H10.5ZM7.8 18V15.39L6.555 14.13C6.385 13.96 6.25 13.765 6.15 13.545C6.05 13.325 6 13.085 6 12.825C6 12.565 6.05 12.32 6.15 12.09C6.25 11.86 6.385 11.66 6.555 11.49L7.41 12.345C7.34 12.405 7.2875 12.475 7.2525 12.555C7.2175 12.635 7.2 12.725 7.2 12.825C7.2 12.915 7.2175 13 7.2525 13.08C7.2875 13.16 7.335 13.23 7.395 13.29L8.82 14.715C8.87 14.775 8.9125 14.8425 8.9475 14.9175C8.9825 14.9925 9 15.07 9 15.15V18H7.8Z" fill="#F3772A"/>
</g>
<defs>
<clipPath id="clip0_4_782">
<rect width="24" height="24" fill="white"/>
</clipPath>
</defs>
</svg>
