<svg width="24" height="24" viewBox="0 0 24 24" fill="none" xmlns="http://www.w3.org/2000/svg">
<g clip-path="url(#clip0_4_231)">
<path d="M23 12.5195C22.9875 12.6445 22.9726 12.7694 22.9627 12.8946C22.7486 15.5567 21.5682 18.0487 19.6437 19.9017C18.139 21.351 16.3646 22.3007 14.3206 22.7509C13.3919 22.9564 12.4398 23.0353 11.4899 22.9856C8.78108 22.8411 6.43415 21.842 4.44914 19.9882C3.09875 18.7235 2.13663 17.2044 1.5519 15.4487C1.23302 14.4899 1.05071 13.491 1.01033 12.4814C0.929654 10.5648 1.32136 8.75068 2.18545 7.03892C2.66412 6.09099 3.28008 5.2188 4.01346 4.45052C5.30435 3.09448 6.83923 2.12498 8.6181 1.54203C9.61451 1.21676 10.6533 1.03956 11.7013 1.01613C11.7265 1.01317 11.7514 1.00777 11.7755 1L12.2193 1C12.2364 1.00779 12.2545 1.01315 12.2731 1.01592C12.7865 1.0255 13.2984 1.07327 13.8046 1.15884C14.8914 1.33656 15.9446 1.67944 16.9276 2.17557C19.3134 3.37768 21.1838 5.40148 22.1936 7.87364C22.6181 8.9115 22.8779 10.0093 22.9635 11.1272C22.973 11.2494 22.9877 11.3711 23 11.4931V12.5195ZM22.1166 12.0008C22.1367 6.54346 17.6922 1.89418 12.0037 1.88954C6.39555 1.8849 1.90569 6.43239 1.87745 11.9515C1.84921 17.5038 6.33767 22.1091 11.9792 22.1182C17.6874 22.1273 22.1395 17.4657 22.1166 12.0008Z" fill="#F3772A" stroke="#F3772A" stroke-width="0.5"/>
<path d="M16.8095 7.22467C16.2822 6.72996 15.644 6.36884 14.9484 6.17159C14.2527 5.97434 13.52 5.9467 12.8115 6.09099C11.1404 6.38551 9.60506 7.20015 8.42431 8.41872C7.20125 9.59974 6.38397 11.138 6.08987 12.8126C5.94671 13.5201 5.97492 14.2515 6.17214 14.9459C6.36936 15.6403 6.72987 16.2773 7.22355 16.8039C7.63587 17.1995 8.12293 17.5088 8.65623 17.7138C9.18952 17.9188 9.75835 18.0154 10.3294 17.998C12.3325 17.9174 14.2257 17.061 15.6088 15.6099C18.2511 12.9669 18.7878 9.20358 16.8095 7.22467ZM6.75398 12.9132C7.02774 11.3824 7.77643 9.97653 8.89388 8.895C9.9736 7.77514 11.3803 7.02602 12.9121 6.7551C13.1741 6.7155 13.4387 6.69532 13.7036 6.69472C14.1864 6.67801 14.6677 6.7578 15.1192 6.92943C15.5707 7.10106 15.9835 7.36107 16.3333 7.69424C16.3614 7.72015 16.3861 7.74944 16.407 7.78145C15.9892 8.14362 15.5067 8.42357 14.9849 8.60655C14.2312 8.8776 13.5513 9.32093 12.9993 9.90123C12.419 10.4533 11.9757 11.1332 11.7046 11.8869C11.4699 12.5587 11.0763 13.1639 10.5575 13.6511C10.0685 14.1677 9.46384 14.5608 8.79326 14.7982C8.21652 15.0036 7.68224 15.3128 7.21684 15.7105C6.73858 14.8615 6.5747 13.8711 6.75398 12.9132ZM15.1325 15.1336C12.7511 17.515 9.41712 18.0517 7.69983 16.3344C7.67135 16.3069 7.64447 16.2778 7.61933 16.2472C8.04041 15.886 8.52491 15.6062 9.04817 15.4221C9.79971 15.1468 10.4787 14.704 11.0338 14.1274C11.6127 13.5742 12.0558 12.8946 12.3285 12.1418C12.5632 11.4699 12.9567 10.8647 13.4756 10.3775C13.9627 9.85869 14.568 9.46517 15.2398 9.23041C15.8139 9.02065 16.3456 8.70935 16.8095 8.31139C17.9097 10.1307 17.259 13.0071 15.1325 15.1336Z" fill="#F3772A" stroke="#F3772A" stroke-width="0.5"/>
</g>
<defs>
<clipPath id="clip0_4_231">
<rect width="24" height="24" fill="white"/>
</clipPath>
</defs>
</svg>
