<svg width="24" height="24" viewBox="0 0 24 24" fill="none" xmlns="http://www.w3.org/2000/svg">
<g clip-path="url(#clip0_4_1131)">
<path d="M23 12.5195C22.9875 12.6445 22.9726 12.7694 22.9627 12.8946C22.7486 15.5567 21.5682 18.0487 19.6437 19.9017C18.139 21.351 16.3646 22.3007 14.3206 22.7509C13.3919 22.9564 12.4398 23.0353 11.4899 22.9856C8.78108 22.8411 6.43415 21.842 4.44914 19.9882C3.09875 18.7235 2.13663 17.2044 1.5519 15.4487C1.23302 14.4899 1.05071 13.491 1.01033 12.4814C0.929654 10.5648 1.32136 8.75068 2.18545 7.03892C2.66412 6.09099 3.28008 5.2188 4.01346 4.45052C5.30435 3.09448 6.83923 2.12498 8.6181 1.54203C9.61451 1.21676 10.6533 1.03956 11.7013 1.01613C11.7265 1.01317 11.7514 1.00777 11.7755 1L12.2193 1C12.2364 1.00779 12.2545 1.01315 12.2731 1.01592C12.7865 1.0255 13.2984 1.07327 13.8046 1.15884C14.8914 1.33656 15.9446 1.67944 16.9276 2.17557C19.3134 3.37768 21.1838 5.40148 22.1936 7.87364C22.6181 8.9115 22.8779 10.0093 22.9635 11.1272C22.973 11.2494 22.9877 11.3711 23 11.4931V12.5195ZM22.1166 12.0008C22.1367 6.54346 17.6922 1.89418 12.0037 1.88954C6.39555 1.8849 1.90569 6.43239 1.87745 11.9515C1.84921 17.5038 6.33767 22.1091 11.9792 22.1182C17.6874 22.1273 22.1395 17.4657 22.1166 12.0008Z" fill="#F3772A" stroke="#F3772A" stroke-width="0.5"/>
<path d="M16.3333 14.4397C16.3265 16.5555 14.7592 18.4687 12.64 18.893C11.0174 19.2178 9.59334 18.8009 8.40306 17.6745C7.65057 16.9622 7.21686 16.0827 7.04873 15.0744C6.93555 14.3961 7.02932 13.738 7.2289 13.0869C7.49196 12.2309 7.84646 11.4104 8.23571 10.6044C9.08935 8.83506 10.0639 7.12956 11.1125 5.46442C11.1834 5.35186 11.2719 5.25009 11.3439 5.13829C11.4639 4.95239 11.8638 4.95599 11.9813 5.13658C12.1073 5.33063 12.2492 5.51558 12.3713 5.71153C13.1923 7.0314 13.9664 8.37723 14.6728 9.75925C15.1541 10.7007 15.6072 11.6543 15.9559 12.652C16.1136 13.1028 16.2489 13.5595 16.3054 14.0353C16.3217 14.1687 16.3246 14.3046 16.3333 14.4397ZM11.673 6.17846C11.6596 6.18528 11.6518 6.1866 11.6489 6.19096C11.6295 6.21977 11.6101 6.24876 11.5907 6.27832C10.6029 7.87657 9.68148 9.50968 8.88123 11.2053C8.53974 11.9296 8.22678 12.6645 8.00313 13.434C7.85927 13.9285 7.79967 14.427 7.88412 14.9391C8.02507 15.7952 8.39898 16.5362 9.04567 17.1321C9.96512 17.9796 11.0634 18.3345 12.3072 18.1098C13.8118 17.8377 14.7981 16.9423 15.296 15.5379C15.4635 15.0751 15.5205 14.5811 15.4626 14.0935C15.4211 13.7513 15.3267 13.4204 15.2174 13.0933C14.8893 12.1079 14.4447 11.1707 13.9749 10.244C13.3513 9.01225 12.6699 7.80986 11.9514 6.62814C11.8603 6.4773 11.7658 6.32797 11.673 6.17846Z" fill="#F3772A" stroke="#F3772A" stroke-width="0.5"/>
</g>
<defs>
<clipPath id="clip0_4_1131">
<rect width="24" height="24" fill="white"/>
</clipPath>
</defs>
</svg>
