<svg width="24" height="24" viewBox="0 0 24 24" fill="none" xmlns="http://www.w3.org/2000/svg">
<g clip-path="url(#clip0_4_792)">
<path d="M23 12.5195C22.9875 12.6445 22.9726 12.7694 22.9627 12.8946C22.7486 15.5567 21.5682 18.0487 19.6437 19.9017C18.139 21.351 16.3646 22.3007 14.3206 22.7509C13.3919 22.9564 12.4398 23.0353 11.4899 22.9856C8.78108 22.8411 6.43415 21.842 4.44914 19.9882C3.09875 18.7235 2.13663 17.2044 1.5519 15.4487C1.23302 14.4899 1.05071 13.491 1.01033 12.4814C0.929654 10.5648 1.32136 8.75068 2.18545 7.03892C2.66412 6.09099 3.28008 5.2188 4.01346 4.45052C5.30435 3.09448 6.83923 2.12498 8.6181 1.54203C9.61451 1.21676 10.6533 1.03956 11.7013 1.01613C11.7265 1.01317 11.7514 1.00777 11.7755 1L12.2193 1C12.2364 1.00779 12.2545 1.01315 12.2731 1.01592C12.7865 1.0255 13.2984 1.07327 13.8046 1.15884C14.8914 1.33656 15.9446 1.67944 16.9276 2.17557C19.3134 3.37768 21.1838 5.40148 22.1936 7.87364C22.6181 8.9115 22.8779 10.0093 22.9635 11.1272C22.973 11.2494 22.9877 11.3711 23 11.4931V12.5195ZM22.1166 12.0008C22.1367 6.54346 17.6922 1.89418 12.0037 1.88954C6.39555 1.8849 1.90569 6.43239 1.87745 11.9515C1.84921 17.5038 6.33767 22.1091 11.9792 22.1182C17.6874 22.1273 22.1395 17.4657 22.1166 12.0008Z" fill="#F3772A" stroke="#F3772A" stroke-width="0.5"/>
<path d="M16.1238 7.12305L14.7625 17.8437C14.6876 18.4329 14.1268 18.9106 13.5008 18.9106H9.76582C9.14386 18.9106 8.57912 18.4339 8.50418 17.8437L7.14282 7.12305" stroke="#F3772A" stroke-linecap="round" stroke-linejoin="round"/>
<path fill-rule="evenodd" clip-rule="evenodd" d="M12.1303 13.4968C12.5654 13.6193 12.8163 14.0704 12.692 14.4995L11.8462 17.4186C11.7213 17.8493 11.2706 18.0985 10.8326 17.9734C10.3976 17.8493 10.1468 17.3979 10.271 16.97L11.1164 14.0548C11.2413 13.6242 11.6922 13.3734 12.1303 13.4968Z" stroke="#F3772A" stroke-linecap="round" stroke-linejoin="round"/>
<path d="M14.8927 4.91016L12.1914 13.5385" stroke="#F3772A" stroke-linecap="round" stroke-linejoin="round"/>
<path d="M7.57715 10.0664H15.6895" stroke="#F3772A" stroke-linecap="round" stroke-linejoin="round"/>
</g>
<defs>
<clipPath id="clip0_4_792">
<rect width="24" height="24" fill="white"/>
</clipPath>
</defs>
</svg>
