<svg width="112" height="40" viewBox="0 0 112 40" fill="none" xmlns="http://www.w3.org/2000/svg">
<path d="M20.1405 40C31.1862 40 40.1405 31.0457 40.1405 20C40.1405 8.95431 31.1862 0 20.1405 0C9.09481 0 0.140503 8.95431 0.140503 20C0.140503 31.0457 9.09481 40 20.1405 40Z" fill="#B7B6B6"/>
<path d="M51.5691 15.3618C52.1999 15.3989 52.8121 15.1577 53.2574 14.7125C53.6656 14.193 53.8696 13.5251 53.7954 12.8572V4.898H57.4132V12.8572C57.506 14.3785 56.9309 15.8627 55.8548 16.9203C54.6674 17.9221 53.1275 18.4416 51.5691 18.3488C50.0106 18.4416 48.4707 17.9221 47.2834 16.9203C46.1702 15.8627 45.5579 14.3785 45.6322 12.8572V4.898H49.25V12.8572C49.2129 13.5251 49.4169 14.1744 49.8437 14.6939C50.2889 15.1577 50.9197 15.3989 51.5691 15.3618ZM64.6117 18.3674C63.5728 18.3674 62.5338 18.1819 61.5505 17.8108C60.6043 17.4583 59.7138 16.9203 58.9717 16.2338L60.7156 14.026C61.2351 14.4898 61.8103 14.8609 62.4596 15.1206C63.1461 15.3989 63.8696 15.5288 64.5932 15.5288C65.0199 15.5473 65.4466 15.4546 65.8177 15.2505C66.096 15.0835 66.2815 14.7681 66.2629 14.4342C66.2629 14.0817 66.0589 13.7477 65.7435 13.5993C65.1683 13.2653 64.5375 13.0242 63.8882 12.8572L63.0719 12.6345C62.0514 12.4119 61.1238 11.9295 60.3631 11.206C59.7323 10.5566 59.3984 9.66609 59.4355 8.75699C59.4355 7.99633 59.6767 7.23566 60.122 6.62341C60.5858 5.99262 61.2166 5.49169 61.9587 5.19484C62.8121 4.84234 63.7398 4.65681 64.6488 4.67536C65.6322 4.67536 66.5969 4.86089 67.506 5.23195C68.3965 5.58445 69.2314 6.06683 69.955 6.69763L68.1553 8.96108C67.6544 8.53436 67.0978 8.18186 66.5041 7.92211C65.929 7.64382 65.2796 7.47685 64.6303 7.47685C64.2221 7.45829 63.7954 7.5325 63.4244 7.73659C63.1275 7.88501 62.942 8.21896 62.9605 8.55291C62.9791 8.86831 63.1275 9.16516 63.4058 9.35069C63.8696 9.64753 64.4077 9.87017 64.9457 9.98149L65.929 10.2598C67.0607 10.501 68.1182 11.0576 68.9346 11.8553C69.5097 12.5047 69.8251 13.3396 69.8251 14.2115C69.8437 14.9908 69.6025 15.77 69.1758 16.4193C68.7119 17.0501 68.0626 17.5511 67.339 17.8479C66.4856 18.219 65.5579 18.3859 64.6117 18.3674ZM80.7899 18.1076L79.955 15.7143H75.0199L74.185 18.1819H70.6229L75.4652 4.97221H79.6581L84.4262 18.1076H80.7899ZM75.8362 12.9685H78.9717L77.4874 8.34883L75.8362 12.9685ZM49.5468 35.0464V24.7496H45.6136V21.8924H57.0422V24.7496H53.1646V35.0464H49.5468ZM64.6488 35.2876C63.4244 35.3062 62.1999 35.0093 61.1238 34.4156C60.122 33.8405 59.2871 33.0056 58.7119 31.9852C58.0997 30.9091 57.7843 29.6846 57.8214 28.4416C57.8028 27.514 57.9698 26.5678 58.3038 25.6958C58.6192 24.8794 59.1201 24.1373 59.7323 23.5251C60.3446 22.9128 61.0867 22.4305 61.903 22.0965C63.6655 21.4286 65.6136 21.4286 67.3761 22.0965C68.1925 22.4305 68.916 22.9128 69.5468 23.5251C70.1591 24.1373 70.66 24.8794 70.9754 25.6958C71.3464 26.5678 71.5505 27.4954 71.5691 28.4416C71.5876 29.6846 71.2908 30.9091 70.6785 31.9852C70.1034 33.0056 69.25 33.8219 68.2296 34.3971C67.1349 35.0093 65.8919 35.3247 64.6488 35.2876ZM64.6488 32.3191C65.2425 32.3377 65.8177 32.1707 66.3001 31.8368C66.7824 31.5028 67.172 31.0204 67.4132 30.4824C67.6915 29.8516 67.84 29.1652 67.8214 28.4602C67.84 27.7737 67.6915 27.0872 67.4132 26.4379C67.172 25.8628 66.801 25.3804 66.3001 25.0093C65.2982 24.3414 63.9809 24.3414 62.9791 25.0093C62.4782 25.3804 62.1071 25.8628 61.8659 26.4379C61.5876 27.0687 61.4392 27.7551 61.4578 28.4602C61.4392 29.1466 61.5876 29.8331 61.8659 30.4824C62.1071 31.0204 62.4967 31.5028 62.9791 31.8368C63.4615 32.1522 64.0552 32.3191 64.6488 32.3191ZM73.5728 35.0464V21.8368H78.7861C79.9921 21.8182 81.198 22.0965 82.2555 22.6717C83.2388 23.2097 84.0552 24.026 84.6117 24.9908C85.7435 27.1429 85.7435 29.7032 84.6117 31.8368C84.0552 32.8201 83.2388 33.6178 82.2555 34.1559C81.198 34.731 79.9921 35.0279 78.7861 34.9908L73.5728 35.0464ZM77.1349 32.1893H78.7861C79.6581 32.2264 80.493 31.8368 81.031 31.1689C81.6062 30.3897 81.903 29.4249 81.8659 28.4602C81.903 27.4954 81.6062 26.5307 81.031 25.7514C80.493 25.065 79.6581 24.6939 78.7861 24.731H77.1349V32.1893ZM96.1145 35.0464L95.2797 32.5789H90.326L89.4912 35.0464H85.929L90.7713 21.8368H94.9643L99.8065 35.0464H96.1145ZM91.2537 29.8887H94.4077L92.8492 25.2691L91.2537 29.8887ZM106.782 30.2783V35.0279H103.109V30.2783L98.4336 21.8182H102.515L104.964 27.1243L107.395 21.8924H111.476L106.782 30.2783Z" fill="#B7B6B6"/>
</svg>
