<svg width="100" height="100" viewBox="0 0 100 100" fill="none" xmlns="http://www.w3.org/2000/svg">
<g clip-path="url(#clip0_114_2830)">
<path d="M49.575 25.8251C50.2233 25.2928 51.0362 25.002 51.875 25.002C52.7138 25.002 53.5267 25.2928 54.175 25.8251C54.4221 26.0174 54.656 26.2262 54.875 26.4501C56.3216 27.9234 57.4679 29.6641 58.25 31.5751C58.7786 30.8008 59.3724 30.0732 60.025 29.4001C62.0839 27.3623 64.6888 25.9644 67.525 25.3751C68.8395 25.1008 70.1854 25.0083 71.525 25.1001C72.3642 25.188 73.1487 25.5582 73.75 26.1501C74.3469 26.7479 74.718 27.5342 74.8 28.3751C74.9984 30.975 74.5064 33.5813 73.3738 35.93C72.2411 38.2787 70.5081 40.2865 68.35 41.7501C70.215 42.5489 71.9116 43.6941 73.35 45.1251C73.7 45.4751 73.9 45.7501 73.975 45.8251C74.5092 46.4774 74.801 47.2945 74.801 48.1376C74.801 48.9807 74.5092 49.7978 73.975 50.4501C73.0943 51.4622 72.0761 52.3458 70.95 53.0751C68.9582 54.4326 66.6685 55.2901 64.275 55.5751C64.8072 56.2234 65.0981 57.0362 65.0981 57.8751C65.0981 58.7139 64.8072 59.5267 64.275 60.1751C63.3933 61.2027 62.3657 62.0956 61.225 62.8251C59.2361 64.1703 56.9576 65.0269 54.575 65.3251C55.1072 65.9734 55.3981 66.7862 55.3981 67.6251C55.3981 68.4639 55.1072 69.2767 54.575 69.9251C53.7428 70.9054 52.7844 71.7712 51.725 72.5001C49.2969 74.1214 46.4447 74.9909 43.525 75.0001C39.5348 74.9535 35.7212 73.3473 32.9 70.5251L32.5 70.0001L29.225 73.3001C29.0833 73.5396 28.8887 73.7435 28.6561 73.8962C28.4234 74.049 28.159 74.1465 27.8829 74.1813C27.6068 74.2162 27.3264 74.1874 27.0631 74.0973C26.7998 74.0071 26.5607 73.8579 26.3639 73.6612C26.1671 73.4644 26.0179 73.2252 25.9278 72.9619C25.8376 72.6987 25.8089 72.4183 25.8437 72.1422C25.8786 71.8661 25.9761 71.6016 26.1288 71.369C26.2816 71.1364 26.4855 70.9418 26.725 70.8001L30 67.5001L29.55 67.1001C26.7002 64.2911 25.0664 60.476 25 56.4751C25.0061 53.5549 25.876 50.7019 27.5 48.2751C28.2295 47.1343 29.1223 46.1067 30.15 45.2251C30.7983 44.6928 31.6112 44.402 32.45 44.402C33.2888 44.402 34.1017 44.6928 34.75 45.2251C35.0349 42.8315 35.8924 40.5419 37.25 38.5501C37.9409 37.432 38.7821 36.4141 39.75 35.5251C40.4023 34.9909 41.2194 34.699 42.0625 34.699C42.9056 34.699 43.7227 34.9909 44.375 35.5251C44.6599 33.1315 45.5174 30.8419 46.875 28.8501C47.6206 27.7214 48.5116 26.6959 49.525 25.8001L49.575 25.8251ZM35 67.5001C35.1194 67.6542 35.2534 67.7965 35.4 67.9251C36.4771 69.0569 37.7795 69.9503 39.2233 70.5476C40.667 71.145 42.22 71.4329 43.7819 71.3928C45.3438 71.3528 46.8799 70.9856 48.2912 70.3151C49.7024 69.6446 50.9574 68.6856 51.975 67.5001L51.575 67.0751C49.434 64.9376 46.5497 63.7104 43.525 63.6501C41.9149 63.6664 40.3257 64.017 38.8582 64.6798C37.3907 65.3425 36.0769 66.3029 35 67.5001ZM44.7 57.8001C44.8194 57.9542 44.9534 58.0965 45.1 58.2251C46.1741 59.344 47.4698 60.2266 48.9044 60.8163C50.339 61.406 51.8808 61.69 53.4313 61.65C54.9819 61.61 56.507 61.2469 57.9092 60.584C59.3115 59.9211 60.56 58.9729 61.575 57.8001L61.275 57.5001C60.197 56.388 58.9001 55.5116 57.4662 54.9262C56.0323 54.3408 54.4926 54.0592 52.9443 54.0992C51.396 54.1391 49.8728 54.4997 48.471 55.1583C47.0692 55.8168 45.8192 56.7589 44.8 57.9251L44.7 57.8001ZM54.4 48.1001C54.5194 48.2542 54.6534 48.3965 54.8 48.5251C55.8744 49.6421 57.1693 50.5234 58.6026 51.1131C60.0359 51.7027 61.5761 51.9878 63.1255 51.9502C64.6749 51.9126 66.1995 51.5531 67.6025 50.8946C69.0055 50.2361 70.2561 49.2929 71.275 48.1251L70.875 47.7001C69.8006 46.583 68.5057 45.7017 67.0724 45.112C65.6391 44.5224 64.0989 44.2373 62.5495 44.2749C61.0001 44.3125 59.4755 44.672 58.0725 45.3305C56.6695 45.9891 55.4189 46.9322 54.4 48.1001ZM59.25 40.6001C60.8446 40.7112 62.4446 40.479 63.9418 39.919C65.439 39.359 66.7987 38.4843 67.929 37.354C69.0593 36.2237 69.934 34.8641 70.4939 33.3668C71.0539 31.8696 71.2861 30.2697 71.175 28.6751C69.5804 28.5639 67.9804 28.7962 66.4832 29.3561C64.986 29.9161 63.6263 30.7908 62.496 31.9211C61.3657 33.0514 60.4911 34.4111 59.9311 35.9083C59.3711 37.4055 59.1389 39.0054 59.25 40.6001ZM28.625 56.4751C28.6749 59.502 29.9037 62.39 32.05 64.5251C32.1825 64.6991 32.3334 64.8583 32.5 65.0001C33.6662 63.9808 34.6083 62.7308 35.2668 61.329C35.9253 59.9272 36.2859 58.404 36.3259 56.8558C36.3658 55.3075 36.0842 53.7678 35.4988 52.3339C34.9135 50.9 34.0371 49.603 32.925 48.5251L32.5 48.0501C31.3161 49.1149 30.3652 50.4129 29.707 51.8628C29.0487 53.3126 28.6974 54.8829 28.675 56.4751H28.625ZM38.35 46.7751C38.3933 49.7984 39.6129 52.686 41.75 54.8251L42.175 55.2251C43.3346 54.1988 44.2688 52.9432 44.9186 51.5377C45.5684 50.1321 45.9196 48.607 45.9501 47.0588C45.9807 45.5106 45.6899 43.9729 45.096 42.5428C44.5022 41.1127 43.6182 39.8212 42.5 38.7501L42.075 38.3501C40.8882 39.4193 39.934 40.7212 39.2717 42.1749C38.6094 43.6285 38.2531 45.2029 38.225 46.8001L38.35 46.7751ZM48.05 37.0751C48.0933 40.0984 49.3129 42.986 51.45 45.1251L51.875 45.5251C53.0542 44.4564 54.0019 43.1576 54.6598 41.7086C55.3176 40.2596 55.6717 38.6912 55.7 37.1001C55.6567 34.0767 54.4371 31.1891 52.3 29.0501L51.875 28.6501C50.6911 29.7149 49.7402 31.0129 49.082 32.4628C48.4237 33.9126 48.0724 35.4829 48.05 37.0751Z" fill="#F3772A"/>
<path d="M50 0C40.111 0 30.444 2.93245 22.2215 8.42652C13.9991 13.9206 7.59043 21.7295 3.80605 30.8658C0.0216642 40.0021 -0.968503 50.0555 0.960759 59.7545C2.89002 69.4536 7.65206 78.3627 14.6447 85.3553C21.6373 92.348 30.5465 97.11 40.2455 99.0393C49.9446 100.969 59.9979 99.9784 69.1342 96.194C78.2705 92.4096 86.0794 86.001 91.5735 77.7785C97.0676 69.5561 100 59.8891 100 50C100 36.7392 94.7322 24.0215 85.3554 14.6447C75.9785 5.26784 63.2608 0 50 0ZM96.975 50C96.9695 61.9261 92.4087 73.3997 84.225 82.075L17.925 15.775C24.5959 9.49414 32.9604 5.30482 41.9855 3.72443C51.0106 2.14405 60.3009 3.24183 68.7091 6.88218C77.1173 10.5225 84.275 16.546 89.2983 24.2087C94.3216 31.8714 96.9904 40.8376 96.975 50ZM3.02502 50C3.03056 38.0739 7.59139 26.6003 15.775 17.925L82.075 84.225C75.4041 90.5059 67.0396 94.6952 58.0145 96.2756C48.9895 97.856 39.6991 96.7582 31.2909 93.1178C22.8827 89.4775 15.725 83.454 10.7017 75.7913C5.67846 68.1286 3.00969 59.1624 3.02502 50Z" fill="#F3772A"/>
</g>
<defs>
<clipPath id="clip0_114_2830">
<rect width="100" height="100" fill="white"/>
</clipPath>
</defs>
</svg>
