<svg width="100" height="100" viewBox="0 0 100 100" fill="none" xmlns="http://www.w3.org/2000/svg">
<g clip-path="url(#clip0_114_2885)">
<path d="M31.35 43.1757C31.1205 43.1825 30.892 43.1427 30.6782 43.0587C30.4645 42.9747 30.27 42.8483 30.1065 42.6871C29.9429 42.5259 29.8137 42.3332 29.7267 42.1207C29.6396 41.9082 29.5966 41.6803 29.6 41.4507C29.6564 40.5213 29.522 39.5903 29.2051 38.7148C28.8882 37.8394 28.3955 37.038 27.7574 36.3601C27.1193 35.6821 26.3492 35.1418 25.4945 34.7726C24.6398 34.4033 23.7186 34.2128 22.7875 34.2128C21.8565 34.2128 20.9353 34.4033 20.0806 34.7726C19.2259 35.1418 18.4558 35.6821 17.8177 36.3601C17.1796 37.038 16.6869 37.8394 16.37 38.7148C16.0531 39.5903 15.9187 40.5213 15.975 41.4507C15.924 41.8756 15.719 42.2671 15.3988 42.5511C15.0787 42.8351 14.6655 42.9919 14.2375 42.9919C13.8096 42.9919 13.3964 42.8351 13.0763 42.5511C12.7561 42.2671 12.5511 41.8756 12.5 41.4507C12.4317 40.0737 12.644 38.6972 13.1238 37.4048C13.6037 36.1124 14.3412 34.9309 15.2916 33.9322C16.242 32.9335 17.3855 32.1383 18.6525 31.595C19.9196 31.0517 21.2839 30.7715 22.6625 30.7715C24.0412 30.7715 25.4055 31.0517 26.6726 31.595C27.9396 32.1383 29.0831 32.9335 30.0335 33.9322C30.9839 34.9309 31.7214 36.1124 32.2013 37.4048C32.6811 38.6972 32.8934 40.0737 32.825 41.4507C32.8574 41.6636 32.8434 41.8809 32.7843 42.088C32.7251 42.295 32.622 42.4869 32.4821 42.6505C32.3421 42.8142 32.1686 42.9458 31.9733 43.0364C31.7779 43.127 31.5654 43.1745 31.35 43.1757Z" fill="#F3772A"/>
<path d="M22.8 68.7257C20.1055 68.7125 17.5251 67.6363 15.6198 65.731C13.7144 63.8256 12.6382 61.2452 12.625 58.5507C12.6761 58.1258 12.8811 57.7343 13.2013 57.4503C13.5214 57.1663 13.9346 57.0095 14.3625 57.0095C14.7905 57.0095 15.2037 57.1663 15.5238 57.4503C15.844 57.7343 16.049 58.1258 16.1 58.5507C16.0437 59.48 16.1781 60.4111 16.495 61.2865C16.8119 62.162 17.3046 62.9633 17.9427 63.6413C18.5808 64.3193 19.3509 64.8595 20.2056 65.2288C21.0603 65.5981 21.9815 65.7886 22.9125 65.7886C23.8436 65.7886 24.7648 65.5981 25.6195 65.2288C26.4742 64.8595 27.2443 64.3193 27.8824 63.6413C28.5205 62.9633 29.0132 62.162 29.3301 61.2865C29.647 60.4111 29.7814 59.48 29.725 58.5507C29.7761 58.1258 29.9811 57.7343 30.3013 57.4503C30.6214 57.1663 31.0346 57.0095 31.4625 57.0095C31.8905 57.0095 32.3037 57.1663 32.6238 57.4503C32.944 57.7343 33.149 58.1258 33.2 58.5507C33.092 61.2534 31.9549 63.8126 30.0214 65.7043C28.088 67.5959 25.5045 68.6768 22.8 68.7257Z" fill="#F3772A"/>
<path d="M14.35 60.1757C14.1204 60.1792 13.8925 60.1361 13.68 60.049C13.4675 59.962 13.2748 59.8328 13.1136 59.6693C12.9524 59.5057 12.826 59.3112 12.742 59.0975C12.6581 58.8838 12.6183 58.6552 12.6251 58.4257V41.5757C12.5955 41.33 12.6184 41.0809 12.6923 40.8447C12.7661 40.6086 12.8892 40.3907 13.0534 40.2056C13.2176 40.0205 13.4192 39.8723 13.6448 39.7708C13.8705 39.6694 14.1151 39.6169 14.3625 39.6169C14.61 39.6169 14.8546 39.6694 15.0803 39.7708C15.3059 39.8723 15.5075 40.0205 15.6717 40.2056C15.8359 40.3907 15.959 40.6086 16.0328 40.8447C16.1067 41.0809 16.1296 41.33 16.1 41.5757L16.1 58.5507C16.0427 58.9827 15.8366 59.3813 15.5172 59.6778C15.1978 59.9744 14.7851 60.1504 14.35 60.1757Z" fill="#F3772A"/>
<path d="M31.35 60.1757C31.1184 60.1826 30.8877 60.1421 30.6723 60.0566C30.4568 59.9711 30.2611 59.8424 30.0972 59.6785C29.9333 59.5146 29.8047 59.3189 29.7192 59.1035C29.6337 58.888 29.5931 58.6574 29.6 58.4257V50.0007C29.6511 49.5758 29.8561 49.1843 30.1763 48.9003C30.4964 48.6163 30.9096 48.4595 31.3375 48.4595C31.7655 48.4595 32.1787 48.6163 32.4988 48.9003C32.819 49.1843 33.024 49.5758 33.075 50.0007V58.4257C33.0463 58.8762 32.8561 59.3012 32.5392 59.6227C32.2223 59.9441 31.8001 60.1405 31.35 60.1757Z" fill="#F3772A"/>
<path d="M31.35 51.7257H26.35C25.8925 51.7257 25.4538 51.5439 25.1303 51.2204C24.8068 50.8969 24.625 50.4582 24.625 50.0007C24.625 49.5432 24.8068 49.1044 25.1303 48.7809C25.4538 48.4574 25.8925 48.2757 26.35 48.2757H31.35C31.5785 48.2688 31.8059 48.3086 32.0183 48.3929C32.2307 48.4771 32.4236 48.6039 32.5852 48.7655C32.7468 48.9271 32.8736 49.12 32.9579 49.3325C33.0421 49.5449 33.082 49.7723 33.075 50.0007C33.0457 50.4485 32.8545 50.8704 32.5372 51.1878C32.2198 51.5052 31.7979 51.6963 31.35 51.7257Z" fill="#F3772A"/>
<path d="M85.65 43.1757C85.4205 43.1825 85.192 43.1427 84.9782 43.0587C84.7645 42.9747 84.57 42.8483 84.4065 42.6871C84.2429 42.5259 84.1137 42.3332 84.0267 42.1207C83.9396 41.9082 83.8966 41.6803 83.9001 41.4507C83.9564 40.5213 83.822 39.5903 83.5051 38.7148C83.1882 37.8394 82.6955 37.038 82.0574 36.3601C81.4193 35.6821 80.6492 35.1418 79.7945 34.7726C78.9398 34.4033 78.0186 34.2128 77.0875 34.2128C76.1565 34.2128 75.2353 34.4033 74.3806 34.7726C73.5259 35.1418 72.7558 35.6821 72.1177 36.3601C71.4796 37.038 70.9869 37.8394 70.67 38.7148C70.3531 39.5903 70.2187 40.5213 70.2751 41.4507C70.224 41.8756 70.019 42.2671 69.6988 42.5511C69.3787 42.8351 68.9655 42.9919 68.5376 42.9919C68.1096 42.9919 67.6964 42.8351 67.3763 42.5511C67.0561 42.2671 66.8511 41.8756 66.8 41.4507C66.7317 40.0737 66.944 38.6972 67.4238 37.4048C67.9037 36.1124 68.6412 34.9309 69.5916 33.9322C70.542 32.9335 71.6855 32.1383 72.9525 31.595C74.2196 31.0517 75.5839 30.7715 76.9625 30.7715C78.3412 30.7715 79.7055 31.0517 80.9726 31.595C82.2396 32.1383 83.3831 32.9335 84.3335 33.9322C85.2839 34.9309 86.0214 36.1124 86.5013 37.4048C86.9811 38.6972 87.1934 40.0737 87.125 41.4507C87.1573 41.6636 87.1434 41.8809 87.0843 42.088C87.0251 42.295 86.922 42.4869 86.7821 42.6505C86.6421 42.8142 86.4686 42.9458 86.2733 43.0364C86.0779 43.127 85.8654 43.1745 85.65 43.1757Z" fill="#F3772A"/>
<path d="M77.0751 68.7257C74.3828 68.7125 71.805 67.6355 69.9037 65.7294C68.0023 63.8234 66.9316 61.2429 66.9251 58.5507C66.9761 58.1258 67.1811 57.7343 67.5013 57.4503C67.8214 57.1663 68.2346 57.0095 68.6626 57.0095C69.0905 57.0095 69.5037 57.1663 69.8238 57.4503C70.144 57.7343 70.349 58.1258 70.4001 58.5507C70.3437 59.48 70.4781 60.4111 70.795 61.2865C71.1119 62.162 71.6046 62.9633 72.2427 63.6413C72.8808 64.3193 73.6509 64.8595 74.5056 65.2288C75.3603 65.5981 76.2815 65.7886 77.2126 65.7886C78.1436 65.7886 79.0648 65.5981 79.9195 65.2288C80.7742 64.8595 81.5443 64.3193 82.1824 63.6413C82.8205 62.9633 83.3132 62.162 83.6301 61.2865C83.947 60.4111 84.0814 59.48 84.0251 58.5507C84.0761 58.1258 84.2811 57.7343 84.6013 57.4503C84.9214 57.1663 85.3346 57.0095 85.7626 57.0095C86.1905 57.0095 86.6037 57.1663 86.9238 57.4503C87.244 57.7343 87.449 58.1258 87.5001 58.5507C87.3918 61.2577 86.2511 63.8205 84.3123 65.7127C82.3736 67.605 79.7839 68.6831 77.0751 68.7257Z" fill="#F3772A"/>
<path d="M68.65 60.1757C68.4204 60.1792 68.1925 60.1361 67.98 60.049C67.7675 59.962 67.5748 59.8328 67.4136 59.6693C67.2524 59.5057 67.126 59.3112 67.042 59.0975C66.9581 58.8838 66.9183 58.6552 66.925 58.4257V41.5757C66.8955 41.33 66.9184 41.0809 66.9923 40.8447C67.0661 40.6086 67.1892 40.3907 67.3534 40.2056C67.5176 40.0205 67.7191 39.8723 67.9448 39.7708C68.1705 39.6694 68.4151 39.6169 68.6625 39.6169C68.91 39.6169 69.1546 39.6694 69.3803 39.7708C69.6059 39.8723 69.8075 40.0205 69.9717 40.2056C70.1359 40.3907 70.259 40.6086 70.3328 40.8447C70.4067 41.0809 70.4296 41.33 70.4 41.5757L70.4001 58.5507C70.3427 58.9827 70.1366 59.3813 69.8172 59.6778C69.4978 59.9744 69.0851 60.1504 68.65 60.1757Z" fill="#F3772A"/>
<path d="M85.65 60.1757C85.4184 60.1826 85.1877 60.1421 84.9722 60.0566C84.7568 59.9711 84.5611 59.8424 84.3972 59.6785C84.2333 59.5146 84.1046 59.3189 84.0191 59.1035C83.9337 58.888 83.8931 58.6574 83.9 58.4257V41.5757C83.8705 41.33 83.8934 41.0809 83.9673 40.8447C84.0411 40.6086 84.1642 40.3907 84.3284 40.2056C84.4926 40.0205 84.6941 39.8723 84.9198 39.7708C85.1455 39.6694 85.3901 39.6169 85.6376 39.6169C85.885 39.6169 86.1296 39.6694 86.3553 39.7708C86.5809 39.8723 86.7825 40.0205 86.9467 40.2056C87.1109 40.3907 87.234 40.6086 87.3078 40.8447C87.3817 41.0809 87.4046 41.33 87.375 41.5757V58.5507C87.3186 58.9787 87.1161 59.3742 86.8018 59.6703C86.4875 59.9663 86.0807 60.1449 85.65 60.1757Z" fill="#F3772A"/>
<path d="M39.775 68.7257C39.5434 68.7326 39.3127 68.6921 39.0973 68.6066C38.8818 68.5211 38.6861 68.3924 38.5222 68.2285C38.3583 68.0646 38.2297 67.8689 38.1442 67.6535C38.0587 67.438 38.0181 67.2074 38.025 66.9757V33.0257C38.0181 32.794 38.0587 32.5633 38.1442 32.3479C38.2297 32.1324 38.3583 31.9367 38.5222 31.7728C38.6861 31.6089 38.8818 31.4803 39.0973 31.3948C39.3127 31.3093 39.5434 31.2688 39.775 31.2757C40.0047 31.2722 40.2326 31.3153 40.4451 31.4023C40.6576 31.4894 40.8503 31.6185 41.0115 31.7821C41.1727 31.9456 41.2991 32.1401 41.3831 32.3539C41.467 32.5676 41.5068 32.7961 41.5001 33.0257V66.9757C41.5068 67.2052 41.467 67.4338 41.3831 67.6475C41.2991 67.8612 41.1727 68.0557 41.0115 68.2193C40.8503 68.3828 40.6576 68.512 40.4451 68.599C40.2326 68.6861 40.0047 68.7292 39.775 68.7257Z" fill="#F3772A"/>
<path d="M60.0001 68.7257C59.7704 68.7292 59.5425 68.6861 59.33 68.599C59.1175 68.512 58.9248 68.3828 58.7636 68.2193C58.6024 68.0557 58.476 67.8612 58.392 67.6475C58.3081 67.4338 58.2683 67.2052 58.2751 66.9757V33.0257C58.2683 32.7961 58.3081 32.5676 58.392 32.3539C58.476 32.1401 58.6024 31.9456 58.7636 31.7821C58.9248 31.6185 59.1175 31.4894 59.33 31.4023C59.5425 31.3153 59.7704 31.2722 60.0001 31.2757C60.2317 31.2688 60.4624 31.3093 60.6778 31.3948C60.8933 31.4803 61.089 31.6089 61.2529 31.7728C61.4168 31.9367 61.5455 32.1324 61.6309 32.3479C61.7164 32.5633 61.757 32.794 61.7501 33.0257V66.9757C61.757 67.2074 61.7164 67.438 61.6309 67.6535C61.5455 67.8689 61.4168 68.0646 61.2529 68.2285C61.089 68.3924 60.8933 68.5211 60.6778 68.6066C60.4624 68.6921 60.2317 68.7326 60.0001 68.7257Z" fill="#F3772A"/>
<path d="M50 61.9007C49.784 61.9201 49.567 61.8767 49.375 61.7757C48.9474 61.6132 48.6018 61.2875 48.4143 60.8703C48.2267 60.453 48.2126 59.9783 48.375 59.5507L58.5 32.5007C58.6625 32.073 58.9882 31.7274 59.4055 31.5399C59.8227 31.3524 60.2974 31.3383 60.7251 31.5007C61.1485 31.6685 61.4899 31.9948 61.6766 32.4102C61.8633 32.8257 61.8807 33.2976 61.725 33.7257L51.55 60.7757C51.4476 61.1053 51.2413 61.393 50.962 61.5957C50.6826 61.7985 50.3452 61.9055 50 61.9007Z" fill="#F3772A"/>
<path d="M50 61.9007C49.6432 61.9179 49.2906 61.817 48.9969 61.6136C48.7031 61.4103 48.4846 61.1158 48.375 60.7757L38.15 33.6257C37.9944 33.1976 38.0118 32.7257 38.1985 32.3102C38.3852 31.8948 38.7266 31.5685 39.15 31.4007C39.5777 31.2383 40.0524 31.2524 40.4696 31.4399C40.8869 31.6274 41.2126 31.973 41.375 32.4007L51.5501 59.5507C51.7125 59.9783 51.6984 60.453 51.5108 60.8703C51.3233 61.2875 50.9777 61.6132 50.55 61.7757C50.3811 61.8656 50.1912 61.9087 50 61.9007Z" fill="#F3772A"/>
<path d="M50 0C40.111 0 30.444 2.93245 22.2215 8.42652C13.9991 13.9206 7.59043 21.7295 3.80605 30.8658C0.0216642 40.0021 -0.968503 50.0555 0.960759 59.7545C2.89002 69.4536 7.65206 78.3627 14.6447 85.3553C21.6373 92.348 30.5465 97.11 40.2455 99.0393C49.9446 100.969 59.9979 99.9784 69.1342 96.194C78.2705 92.4096 86.0794 86.001 91.5735 77.7785C97.0676 69.5561 100 59.8891 100 50C100 36.7392 94.7322 24.0215 85.3554 14.6447C75.9785 5.26784 63.2608 0 50 0ZM96.975 50C96.9695 61.9261 92.4087 73.3997 84.225 82.075L17.925 15.775C24.5959 9.49414 32.9604 5.30482 41.9855 3.72443C51.0106 2.14405 60.3009 3.24183 68.7091 6.88218C77.1173 10.5225 84.275 16.546 89.2983 24.2087C94.3216 31.8714 96.9904 40.8376 96.975 50ZM3.02502 50C3.03056 38.0739 7.59139 26.6003 15.775 17.925L82.075 84.225C75.4041 90.5059 67.0396 94.6952 58.0145 96.2756C48.9895 97.856 39.6991 96.7582 31.2909 93.1178C22.8827 89.4775 15.725 83.454 10.7017 75.7913C5.67846 68.1286 3.00969 59.1624 3.02502 50Z" fill="#F3772A"/>
</g>
<defs>
<clipPath id="clip0_114_2885">
<rect width="100" height="100" fill="white"/>
</clipPath>
</defs>
</svg>
