<svg width="100" height="100" viewBox="0 0 100 100" fill="none" xmlns="http://www.w3.org/2000/svg">
<g clip-path="url(#clip0_114_2901)">
<path d="M50 0C40.111 0 30.444 2.93245 22.2215 8.42652C13.9991 13.9206 7.59043 21.7295 3.80605 30.8658C0.0216642 40.0021 -0.968503 50.0555 0.960759 59.7545C2.89002 69.4536 7.65206 78.3627 14.6447 85.3553C21.6373 92.348 30.5465 97.11 40.2455 99.0393C49.9446 100.969 59.9979 99.9784 69.1342 96.194C78.2705 92.4096 86.0794 86.001 91.5735 77.7785C97.0676 69.5561 100 59.8891 100 50C100 36.7392 94.7322 24.0215 85.3554 14.6447C75.9785 5.26784 63.2608 0 50 0ZM96.975 50C96.9695 61.9261 92.4087 73.3997 84.225 82.075L17.925 15.775C24.5959 9.49414 32.9604 5.30482 41.9855 3.72443C51.0106 2.14405 60.3009 3.24183 68.7091 6.88218C77.1173 10.5225 84.275 16.546 89.2983 24.2087C94.3216 31.8714 96.9904 40.8376 96.975 50ZM3.02502 50C3.03056 38.0739 7.59139 26.6003 15.775 17.925L82.075 84.225C75.4041 90.5059 67.0396 94.6952 58.0145 96.2756C48.9895 97.856 39.6991 96.7582 31.2909 93.1178C22.8827 89.4775 15.725 83.454 10.7017 75.7913C5.67846 68.1286 3.00969 59.1624 3.02502 50Z" fill="#F3772A"/>
<path d="M40.175 46.125H59.825C60.173 47.6284 60.3905 49.1591 60.475 50.7V73.675C60.5152 74.2186 60.4401 74.7646 60.2549 75.2772C60.0697 75.7898 59.7784 76.2576 59.4 76.65C58.9984 77.0119 58.528 77.2892 58.0168 77.4653C57.5057 77.6414 56.9643 77.7127 56.425 77.675H43.65C43.1107 77.7127 42.5693 77.6414 42.0582 77.4653C41.5471 77.2892 41.0766 77.0119 40.675 76.65C40.2967 76.2576 40.0054 75.7898 39.8201 75.2772C39.6349 74.7646 39.5599 74.2186 39.6 73.675V50.7C39.6722 49.1624 39.8645 47.6327 40.175 46.125ZM43.675 29.675H56.325V33.325C56.4204 36.1051 57.084 38.8362 58.275 41.35C58.575 42.125 58.875 42.925 59.175 43.85H40.85C41.125 42.975 41.425 42.175 41.725 41.35C42.916 38.8362 43.5796 36.1051 43.675 33.325V29.675ZM43.2 22.325H56.8C56.9815 22.3216 57.1618 22.3549 57.3302 22.4228C57.4986 22.4907 57.6515 22.5918 57.7798 22.7202C57.9082 22.8485 58.0094 23.0015 58.0773 23.1698C58.1452 23.3382 58.1784 23.5185 58.175 23.7V25.975C58.1784 26.1565 58.1452 26.3368 58.0773 26.5052C58.0094 26.6735 57.9082 26.8265 57.7798 26.9548C57.6515 27.0832 57.4986 27.1843 57.3302 27.2522C57.1618 27.3201 56.9815 27.3534 56.8 27.35H43.2C43.0185 27.3534 42.8382 27.3201 42.6698 27.2522C42.5015 27.1843 42.3485 27.0832 42.2202 26.9548C42.0918 26.8265 41.9907 26.6735 41.9228 26.5052C41.8549 26.3368 41.8216 26.1565 41.825 25.975V23.7C41.8216 23.5185 41.8549 23.3382 41.9228 23.1698C41.9907 23.0015 42.0918 22.8485 42.2202 22.7202C42.3485 22.5918 42.5015 22.4907 42.6698 22.4228C42.8382 22.3549 43.0185 22.3216 43.2 22.325ZM43.2 20C42.2207 20.0066 41.2834 20.3985 40.591 21.0909C39.8985 21.7834 39.5066 22.7207 39.5 23.7V25.975C39.5051 26.6195 39.6785 27.2515 40.003 27.8084C40.3275 28.3653 40.7918 28.8278 41.35 29.15V33.325C41.2654 35.8143 40.6608 38.2584 39.575 40.5C38.0888 43.6292 37.2795 47.0367 37.2 50.5V73.6C37.168 74.4509 37.3088 75.2994 37.6138 76.0943C37.9189 76.8892 38.382 77.614 38.975 78.225C40.2329 79.3592 41.8824 79.9598 43.575 79.9H56.275C57.9676 79.9598 59.6172 79.3592 60.875 78.225C61.4681 77.614 61.9311 76.8892 62.2362 76.0943C62.5413 75.2994 62.682 74.4509 62.65 73.6V50.5C62.5705 47.0367 61.7613 43.6292 60.275 40.5C59.1892 38.2584 58.5846 35.8143 58.5 33.325V29.15C59.0582 28.8278 59.5225 28.3653 59.847 27.8084C60.1715 27.2515 60.3449 26.6195 60.35 25.975V23.7C60.3447 22.746 59.9735 21.8304 59.313 21.142C58.6525 20.4536 57.753 20.0448 56.8 20H43.2Z" fill="#F3772A" stroke="#F3772A" stroke-width="0.25" stroke-miterlimit="10"/>
</g>
<defs>
<clipPath id="clip0_114_2901">
<rect width="100" height="100" fill="white"/>
</clipPath>
</defs>
</svg>
