<svg width="100" height="100" viewBox="0 0 100 100" fill="none" xmlns="http://www.w3.org/2000/svg">
<g clip-path="url(#clip0_114_2816)">
<path d="M50 0C40.111 0 30.444 2.93245 22.2215 8.42652C13.9991 13.9206 7.59043 21.7295 3.80605 30.8658C0.0216642 40.0021 -0.968503 50.0555 0.960759 59.7545C2.89002 69.4536 7.65206 78.3627 14.6447 85.3553C21.6373 92.348 30.5465 97.11 40.2455 99.0393C49.9446 100.969 59.9979 99.9784 69.1342 96.194C78.2705 92.4096 86.0794 86.001 91.5735 77.7785C97.0676 69.5561 100 59.8891 100 50C100 36.7392 94.7322 24.0215 85.3554 14.6447C75.9785 5.26784 63.2608 0 50 0ZM96.975 50C96.9695 61.9261 92.4087 73.3997 84.225 82.075L17.925 15.775C24.5959 9.49414 32.9604 5.30482 41.9855 3.72443C51.0106 2.14405 60.3009 3.24183 68.7091 6.88218C77.1173 10.5225 84.275 16.546 89.2983 24.2087C94.3216 31.8714 96.9904 40.8376 96.975 50ZM3.02502 50C3.03056 38.0739 7.59139 26.6003 15.775 17.925L82.075 84.225C75.4041 90.5059 67.0396 94.6952 58.0145 96.2756C48.9895 97.856 39.6991 96.7582 31.2909 93.1178C22.8827 89.4775 15.725 83.454 10.7017 75.7913C5.67846 68.1286 3.00969 59.1624 3.02502 50Z" fill="#F3772A"/>
<path d="M45 61.2498C44.0111 61.2498 43.0444 61.543 42.2221 62.0925C41.3999 62.6419 40.759 63.4228 40.3806 64.3364C40.0021 65.25 39.9031 66.2554 40.0961 67.2253C40.289 68.1952 40.7652 69.0861 41.4645 69.7853C42.1637 70.4846 43.0546 70.9608 44.0245 71.1537C44.9944 71.3467 45.9998 71.2476 46.9134 70.8692C47.827 70.4908 48.6079 69.8499 49.1573 69.0277C49.7067 68.2054 50 67.2387 50 66.2498C50 64.9237 49.4732 63.652 48.5355 62.7143C47.5978 61.7766 46.3261 61.2498 45 61.2498ZM45 68.7498C44.5055 68.7498 44.0222 68.6032 43.6111 68.3285C43.1999 68.0538 42.8795 67.6633 42.6903 67.2065C42.5011 66.7497 42.4516 66.247 42.548 65.7621C42.6445 65.2771 42.8826 64.8317 43.2322 64.482C43.5818 64.1324 44.0273 63.8943 44.5123 63.7978C44.9972 63.7014 45.4999 63.7509 45.9567 63.9401C46.4135 64.1293 46.804 64.4498 47.0787 64.8609C47.3534 65.272 47.5 65.7553 47.5 66.2498C47.5 66.9128 47.2366 67.5487 46.7678 68.0176C46.2989 68.4864 45.663 68.7498 45 68.7498Z" fill="#F3772A"/>
<path d="M51.25 51.2498C50.5083 51.2498 49.7833 51.4697 49.1666 51.8818C48.5499 52.2938 48.0693 52.8795 47.7854 53.5647C47.5016 54.25 47.4273 55.004 47.572 55.7314C47.7167 56.4588 48.0739 57.127 48.5983 57.6515C49.1228 58.1759 49.791 58.5331 50.5184 58.6777C51.2458 58.8224 51.9998 58.7482 52.685 58.4644C53.3703 58.1805 53.9559 57.6999 54.368 57.0832C54.7801 56.4665 55 55.7415 55 54.9998C54.9934 54.0073 54.5962 53.0572 53.8944 52.3554C53.1925 51.6535 52.2425 51.2564 51.25 51.2498ZM51.25 56.2498C51.0028 56.2498 50.7611 56.1765 50.5555 56.0391C50.35 55.9018 50.1897 55.7066 50.0951 55.4782C50.0005 55.2497 49.9758 54.9984 50.024 54.7559C50.0722 54.5135 50.1913 54.2907 50.3661 54.1159C50.5409 53.9411 50.7636 53.8221 51.0061 53.7738C51.2486 53.7256 51.4999 53.7503 51.7283 53.845C51.9567 53.9396 52.152 54.0998 52.2893 54.3053C52.4267 54.5109 52.5 54.7526 52.5 54.9998C52.5 55.3313 52.3683 55.6493 52.1339 55.8837C51.8994 56.1181 51.5815 56.2498 51.25 56.2498Z" fill="#F3772A"/>
<path d="M63.75 66.2498C63.0083 66.2498 62.2833 66.4697 61.6666 66.8818C61.0499 67.2938 60.5693 67.8795 60.2854 68.5647C60.0016 69.25 59.9273 70.004 60.072 70.7314C60.2167 71.4588 60.5739 72.127 61.0983 72.6515C61.6228 73.1759 62.291 73.5331 63.0184 73.6778C63.7458 73.8224 64.4998 73.7482 65.185 73.4644C65.8703 73.1805 66.4559 72.6999 66.868 72.0832C67.2801 71.4665 67.5 70.7415 67.5 69.9998C67.4934 69.0073 67.0962 68.0572 66.3944 67.3554C65.6925 66.6535 64.7425 66.2564 63.75 66.2498ZM63.75 71.2498C63.5028 71.2498 63.2611 71.1765 63.0555 71.0391C62.85 70.9018 62.6897 70.7066 62.5951 70.4782C62.5005 70.2498 62.4758 69.9984 62.524 69.7559C62.5722 69.5135 62.6913 69.2907 62.8661 69.1159C63.0409 68.9411 63.2636 68.8221 63.5061 68.7738C63.7486 68.7256 63.9999 68.7503 64.2283 68.845C64.4567 68.9396 64.652 69.0998 64.7893 69.3053C64.9267 69.5109 65 69.7526 65 69.9998C65 70.3313 64.8683 70.6493 64.6339 70.8837C64.3994 71.1181 64.0815 71.2498 63.75 71.2498Z" fill="#F3772A"/>
<path d="M74.425 68.8742L57.5 43.8242V28.8242H58.75C59.7446 28.8242 60.6984 28.4291 61.4017 27.7259C62.1049 27.0226 62.5 26.0688 62.5 25.0742C62.5 24.0797 62.1049 23.1258 61.4017 22.4226C60.6984 21.7193 59.7446 21.3242 58.75 21.3242H41.25C40.2555 21.3242 39.3016 21.7193 38.5984 22.4226C37.8951 23.1258 37.5 24.0797 37.5 25.0742C37.5 26.0688 37.8951 27.0226 38.5984 27.7259C39.3016 28.4291 40.2555 28.8242 41.25 28.8242H42.5V43.8242L25.575 68.8242C24.9202 69.9455 24.5351 71.2036 24.45 72.4992C24.4517 73.8553 24.8998 75.1732 25.725 76.2492C26.3235 77.0077 27.0819 77.625 27.9461 78.0571C28.8103 78.4892 29.7591 78.7255 30.725 78.7492H69.35C70.313 78.7107 71.2568 78.4678 72.1188 78.0368C72.9808 77.6058 73.7414 76.9965 74.35 76.2492C75.1655 75.168 75.6125 73.8535 75.625 72.4992C75.5379 71.2089 75.125 69.9617 74.425 68.8742ZM69.3 76.2492H30.7C30.2066 76.2526 29.7175 76.1578 29.261 75.9706C28.8046 75.7833 28.3898 75.5072 28.041 75.1583C27.6921 74.8094 27.416 74.3947 27.2287 73.9382C27.0414 73.4818 26.9467 72.9926 26.95 72.4992C26.9446 71.7257 27.1902 70.9713 27.65 70.3492L27.95 69.8492L32.075 63.7492H37.5C37.8315 63.7492 38.1495 63.6175 38.3839 63.3831C38.6183 63.1487 38.75 62.8308 38.75 62.4992C38.75 62.1677 38.6183 61.8498 38.3839 61.6154C38.1495 61.3809 37.8315 61.2492 37.5 61.2492H33.75L44.775 44.9992C44.9336 44.7823 45.013 44.5176 45 44.2492V26.2492H41.25C40.9185 26.2492 40.6006 26.1175 40.3661 25.8831C40.1317 25.6487 40 25.3307 40 24.9992C40 24.6677 40.1317 24.3498 40.3661 24.1153C40.6006 23.8809 40.9185 23.7492 41.25 23.7492H58.75C59.0815 23.7492 59.3995 23.8809 59.6339 24.1153C59.8683 24.3498 60 24.6677 60 24.9992C60 25.3307 59.8683 25.6487 59.6339 25.8831C59.3995 26.1175 59.0815 26.2492 58.75 26.2492H55V44.2242C55.005 44.4709 55.0739 44.7121 55.2 44.9242L66.25 61.2492H51.5C51.1685 61.2492 50.8506 61.3809 50.6161 61.6154C50.3817 61.8498 50.25 62.1677 50.25 62.4992C50.25 62.8308 50.3817 63.1487 50.6161 63.3831C50.8506 63.6175 51.1685 63.7492 51.5 63.7492H67.9L72.05 69.8992L72.375 70.3992C72.7684 70.9614 73 71.6208 73.0446 72.3054C73.0892 72.9901 72.9451 73.674 72.628 74.2824C72.3109 74.8909 71.8329 75.4007 71.2461 75.7563C70.6593 76.1119 69.9862 76.2997 69.3 76.2992V76.2492Z" fill="#F3772A"/>
<path d="M45 61.2498C44.0111 61.2498 43.0444 61.543 42.2221 62.0925C41.3999 62.6419 40.759 63.4228 40.3806 64.3364C40.0021 65.25 39.9031 66.2554 40.0961 67.2253C40.289 68.1952 40.7652 69.0861 41.4645 69.7853C42.1637 70.4846 43.0546 70.9608 44.0245 71.1537C44.9944 71.3467 45.9998 71.2476 46.9134 70.8692C47.827 70.4908 48.6079 69.8499 49.1573 69.0277C49.7067 68.2054 50 67.2387 50 66.2498C50 64.9237 49.4732 63.652 48.5355 62.7143C47.5978 61.7766 46.3261 61.2498 45 61.2498ZM45 68.7498C44.5055 68.7498 44.0222 68.6032 43.6111 68.3285C43.1999 68.0538 42.8795 67.6633 42.6903 67.2065C42.5011 66.7497 42.4516 66.247 42.548 65.7621C42.6445 65.2771 42.8826 64.8317 43.2322 64.482C43.5818 64.1324 44.0273 63.8943 44.5123 63.7978C44.9972 63.7014 45.4999 63.7509 45.9567 63.9401C46.4135 64.1293 46.804 64.4498 47.0787 64.8609C47.3534 65.272 47.5 65.7553 47.5 66.2498C47.5 66.9128 47.2366 67.5487 46.7678 68.0176C46.2989 68.4864 45.663 68.7498 45 68.7498Z" fill="#F3772A"/>
<path d="M51.25 51.2498C50.5083 51.2498 49.7833 51.4697 49.1666 51.8818C48.5499 52.2938 48.0693 52.8795 47.7854 53.5647C47.5016 54.25 47.4273 55.004 47.572 55.7314C47.7167 56.4588 48.0739 57.127 48.5983 57.6515C49.1228 58.1759 49.791 58.5331 50.5184 58.6777C51.2458 58.8224 51.9998 58.7482 52.685 58.4644C53.3703 58.1805 53.9559 57.6999 54.368 57.0832C54.7801 56.4665 55 55.7415 55 54.9998C54.9934 54.0073 54.5962 53.0572 53.8944 52.3554C53.1925 51.6535 52.2425 51.2564 51.25 51.2498ZM51.25 56.2498C51.0028 56.2498 50.7611 56.1765 50.5555 56.0391C50.35 55.9018 50.1897 55.7066 50.0951 55.4782C50.0005 55.2497 49.9758 54.9984 50.024 54.7559C50.0722 54.5135 50.1913 54.2907 50.3661 54.1159C50.5409 53.9411 50.7636 53.8221 51.0061 53.7738C51.2486 53.7256 51.4999 53.7503 51.7283 53.845C51.9567 53.9396 52.152 54.0998 52.2893 54.3053C52.4267 54.5109 52.5 54.7526 52.5 54.9998C52.5 55.3313 52.3683 55.6493 52.1339 55.8837C51.8994 56.1181 51.5815 56.2498 51.25 56.2498Z" fill="#F3772A"/>
<path d="M63.75 66.2498C63.0083 66.2498 62.2833 66.4697 61.6666 66.8818C61.0499 67.2938 60.5693 67.8795 60.2854 68.5647C60.0016 69.25 59.9273 70.004 60.072 70.7314C60.2167 71.4588 60.5739 72.127 61.0983 72.6515C61.6228 73.1759 62.291 73.5331 63.0184 73.6778C63.7458 73.8224 64.4998 73.7482 65.185 73.4644C65.8703 73.1805 66.4559 72.6999 66.868 72.0832C67.2801 71.4665 67.5 70.7415 67.5 69.9998C67.4934 69.0073 67.0962 68.0572 66.3944 67.3554C65.6925 66.6535 64.7425 66.2564 63.75 66.2498ZM63.75 71.2498C63.5028 71.2498 63.2611 71.1765 63.0555 71.0391C62.85 70.9018 62.6897 70.7066 62.5951 70.4782C62.5005 70.2498 62.4758 69.9984 62.524 69.7559C62.5722 69.5135 62.6913 69.2907 62.8661 69.1159C63.0409 68.9411 63.2636 68.8221 63.5061 68.7738C63.7486 68.7256 63.9999 68.7503 64.2283 68.845C64.4567 68.9396 64.652 69.0998 64.7893 69.3053C64.9267 69.5109 65 69.7526 65 69.9998C65 70.3313 64.8683 70.6493 64.6339 70.8837C64.3994 71.1181 64.0815 71.2498 63.75 71.2498Z" fill="#F3772A"/>
<path d="M51.25 51.2498C50.5083 51.2498 49.7833 51.4697 49.1666 51.8818C48.5499 52.2938 48.0693 52.8795 47.7854 53.5647C47.5016 54.25 47.4273 55.004 47.572 55.7314C47.7167 56.4588 48.0739 57.127 48.5983 57.6515C49.1228 58.1759 49.791 58.5331 50.5184 58.6777C51.2458 58.8224 51.9998 58.7482 52.685 58.4644C53.3703 58.1805 53.9559 57.6999 54.368 57.0832C54.7801 56.4665 55 55.7415 55 54.9998C54.9934 54.0073 54.5962 53.0572 53.8944 52.3554C53.1925 51.6535 52.2425 51.2564 51.25 51.2498ZM51.25 56.2498C51.0028 56.2498 50.7611 56.1765 50.5555 56.0391C50.35 55.9018 50.1897 55.7066 50.0951 55.4782C50.0005 55.2497 49.9758 54.9984 50.024 54.7559C50.0722 54.5135 50.1913 54.2907 50.3661 54.1159C50.5409 53.9411 50.7636 53.8221 51.0061 53.7738C51.2486 53.7256 51.4999 53.7503 51.7283 53.845C51.9567 53.9396 52.152 54.0998 52.2893 54.3053C52.4267 54.5109 52.5 54.7526 52.5 54.9998C52.5 55.3313 52.3683 55.6493 52.1339 55.8837C51.8994 56.1181 51.5815 56.2498 51.25 56.2498Z" fill="#F3772A"/>
<path d="M45 61.2498C44.0111 61.2498 43.0444 61.543 42.2221 62.0925C41.3999 62.6419 40.759 63.4228 40.3806 64.3364C40.0021 65.25 39.9031 66.2554 40.0961 67.2253C40.289 68.1952 40.7652 69.0861 41.4645 69.7853C42.1637 70.4846 43.0546 70.9608 44.0245 71.1537C44.9944 71.3467 45.9998 71.2476 46.9134 70.8692C47.827 70.4908 48.6079 69.8499 49.1573 69.0277C49.7067 68.2054 50 67.2387 50 66.2498C50 64.9237 49.4732 63.652 48.5355 62.7143C47.5978 61.7766 46.3261 61.2498 45 61.2498ZM45 68.7498C44.5055 68.7498 44.0222 68.6032 43.6111 68.3285C43.1999 68.0538 42.8795 67.6633 42.6903 67.2065C42.5011 66.7497 42.4516 66.247 42.548 65.7621C42.6445 65.2771 42.8826 64.8317 43.2322 64.482C43.5818 64.1324 44.0273 63.8943 44.5123 63.7978C44.9972 63.7014 45.4999 63.7509 45.9567 63.9401C46.4135 64.1293 46.804 64.4498 47.0787 64.8609C47.3534 65.272 47.5 65.7553 47.5 66.2498C47.5 66.9128 47.2366 67.5487 46.7678 68.0176C46.2989 68.4864 45.663 68.7498 45 68.7498Z" fill="#F3772A"/>
<path d="M63.75 66.2498C63.0083 66.2498 62.2833 66.4697 61.6666 66.8818C61.0499 67.2938 60.5693 67.8795 60.2854 68.5647C60.0016 69.25 59.9273 70.004 60.072 70.7314C60.2167 71.4588 60.5739 72.127 61.0983 72.6515C61.6228 73.1759 62.291 73.5331 63.0184 73.6778C63.7458 73.8224 64.4998 73.7482 65.185 73.4644C65.8703 73.1805 66.4559 72.6999 66.868 72.0832C67.2801 71.4665 67.5 70.7415 67.5 69.9998C67.4934 69.0073 67.0962 68.0572 66.3944 67.3554C65.6925 66.6535 64.7425 66.2564 63.75 66.2498ZM63.75 71.2498C63.5028 71.2498 63.2611 71.1765 63.0555 71.0391C62.85 70.9018 62.6897 70.7066 62.5951 70.4782C62.5005 70.2498 62.4758 69.9984 62.524 69.7559C62.5722 69.5135 62.6913 69.2907 62.8661 69.1159C63.0409 68.9411 63.2636 68.8221 63.5061 68.7738C63.7486 68.7256 63.9999 68.7503 64.2283 68.845C64.4567 68.9396 64.652 69.0998 64.7893 69.3053C64.9267 69.5109 65 69.7526 65 69.9998C65 70.3313 64.8683 70.6493 64.6339 70.8837C64.3994 71.1181 64.0815 71.2498 63.75 71.2498Z" fill="#F3772A"/>
</g>
<defs>
<clipPath id="clip0_114_2816">
<rect width="100" height="100" fill="white"/>
</clipPath>
</defs>
</svg>
