<svg width="131" height="40" viewBox="0 0 131 40" fill="none" xmlns="http://www.w3.org/2000/svg">
<g clip-path="url(#clip0_92_595)">
<path fill-rule="evenodd" clip-rule="evenodd" d="M10.1651 40H13.2014V24H10.1651V40ZM21.2953 39.76H24.0148V29.665L35.4618 40V24.24H32.7499V34.1625L21.2953 24V39.76ZM41.6701 35.885C43.1502 37.0225 44.9269 37.68 46.8315 37.68C48.6868 37.68 49.9883 37.05 49.9883 35.6588C49.9883 34.4463 49.1582 33.9713 47.7047 33.44L45.3514 32.6338C43.1819 31.8738 41.5319 30.7638 41.5319 28.2125C41.5319 25.4837 44.0297 24 47.0166 24C48.8465 24 50.5142 24.4537 51.8169 25.2575V27.9638C50.4622 26.9762 48.9795 26.2963 47.0749 26.2963C45.435 26.2963 44.2096 26.9 44.2096 28.1588C44.2096 29.2963 44.9788 29.7512 46.3335 30.2087L48.9555 31.1162C51.4963 31.9975 52.6621 33.3638 52.6621 35.6113C52.6621 38.4388 50.1403 40 46.8315 40C44.657 40 42.808 39.4 41.6701 38.6425V35.885ZM59.7461 40H62.7811V24H59.7461V40ZM77.0199 37.5788C80.4414 37.5788 82.2701 35.4137 82.2701 31.9963C82.2701 28.5538 80.4402 26.3963 77.0199 26.3963H73.6363V37.5788H77.0199ZM70.8737 24H77.1213C81.9305 24 85.0403 27.125 85.0403 31.9963C85.0403 36.8713 81.9305 40 77.1213 40H70.8737V24ZM100.219 24V26.3963H92.8731V30.2463H99.4615V32.615H92.8719V37.5788H100.219V40H90.1004V24H100.219ZM110.993 31.245H114.006C115.789 31.245 116.794 30.28 116.794 28.7963C116.794 27.3125 115.789 26.3462 114.006 26.3462H110.993V31.245ZM110.993 33.5075V40H108.313V24H114.056C117.331 24 119.45 25.6638 119.45 28.7963C119.45 31.475 118.274 33.0137 115.768 33.4087L121.467 40H118.418L112.901 33.5088H110.995L110.993 33.5075ZM9.10437 8.2375C10.2918 7.80875 11.2169 6.5225 11.2169 4.75375C11.2169 1.80625 9.10437 0.27875 5.72463 0.27875H0.0473633V16.7325H6.2518C9.63154 16.7325 11.744 15.0975 11.744 12.0162C11.744 10.2738 10.6352 8.74625 9.10437 8.2375ZM2.71365 7.1925V2.69125H5.69928C7.5748 2.69125 8.5772 3.36125 8.5772 4.915C8.5772 6.46875 7.57354 7.1925 5.69928 7.1925H2.71365ZM2.71365 9.4975H6.19858C8.04875 9.4975 9.05115 10.4075 9.05115 11.9088C9.05115 13.3825 8.04749 14.3212 6.19984 14.3212H2.71492V9.49625L2.71365 9.4975ZM24.1314 17C28.0129 17 30.6273 14.695 30.6273 10.1937V0.27875H27.8812V9.87125C27.8812 13.0337 26.5607 14.5088 24.1314 14.5088C21.7021 14.5088 20.3829 13.0337 20.3829 9.87125V0.27875H17.6367V10.1663C17.6367 14.695 20.2764 17 24.1314 17ZM37.0928 15.5525C38.2282 16.3575 40.0771 17 42.2416 17C45.5428 17 48.0506 15.3375 48.0506 12.3375C48.0506 9.9525 46.8898 8.505 44.3541 7.5675L41.741 6.6025C40.3939 6.12125 39.6285 5.63875 39.6285 4.4325C39.6285 3.0925 40.8425 2.45 42.4798 2.45C44.3807 2.45 45.8596 3.1725 47.2067 4.21875V1.35C45.9128 0.49375 44.2489 0.01125 42.4266 0.01125C39.4435 0.01125 36.961 1.5925 36.961 4.48625C36.961 7.1925 38.5983 8.37125 40.7627 9.175L43.1134 10.0325C44.5657 10.595 45.3844 11.105 45.3844 12.3913C45.3844 13.865 44.0905 14.535 42.2416 14.535C40.3407 14.535 38.5716 13.8375 37.0928 12.6325V15.5525ZM57.8629 0.27875H55.1181V16.7313H57.8629V0.27875ZM65.697 16.7113H68.343V6.0075L79.4796 16.9662V0.25375H76.8412V10.775L65.697 0V16.7113ZM96.6394 0.2825V2.74625H89.5099V6.70625H95.9031V9.1425H89.5099V14.2463H96.6394V16.7362H86.8182V0.2825H96.6394ZM103.033 15.5412C104.168 16.3462 106.016 16.9888 108.181 16.9888C111.481 16.9888 113.991 15.3275 113.991 12.3263C113.991 9.94125 112.828 8.495 110.294 7.55625L107.68 6.5925C106.333 6.11 105.567 5.6275 105.567 4.42125C105.567 3.08125 106.781 2.43875 108.418 2.43875C110.319 2.43875 111.798 3.1625 113.145 4.2075V1.34C111.851 0.4825 110.188 0 108.365 0C105.382 0 102.9 1.58125 102.9 4.475C102.9 7.18125 104.537 8.36 106.701 9.16375L109.052 10.0212C110.504 10.5837 111.323 11.0938 111.323 12.38C111.323 13.8538 110.03 14.5238 108.18 14.5238C106.279 14.5238 104.51 13.8275 103.033 12.6213V15.5412ZM119.616 15.5412C120.751 16.3462 122.6 16.9888 124.765 16.9888C128.066 16.9888 130.574 15.3275 130.574 12.3263C130.574 9.94125 129.412 8.495 126.877 7.55625L124.263 6.5925C122.917 6.11 122.15 5.6275 122.15 4.42125C122.15 3.08125 123.366 2.43875 125.002 2.43875C126.902 2.43875 128.383 3.1625 129.728 4.2075V1.34C128.436 0.4825 126.772 0 124.95 0C121.965 0 119.484 1.58125 119.484 4.475C119.484 7.18125 121.121 8.36 123.286 9.16375L125.636 10.0212C127.089 10.5837 127.907 11.0938 127.907 12.38C127.907 13.8538 126.614 14.5238 124.765 14.5238C122.864 14.5238 121.095 13.8275 119.616 12.6213V15.5412Z" fill="#B7B6B6"/>
</g>
<defs>
<clipPath id="clip0_92_595">
<rect width="130.526" height="40" fill="white" transform="translate(0.0473633)"/>
</clipPath>
</defs>
</svg>
