<svg width="197" height="40" viewBox="0 0 197 40" fill="none" xmlns="http://www.w3.org/2000/svg">
<path d="M78.9766 7.40005C80.8022 7.40005 82.1714 5.93306 82.1714 4.20526C82.1714 2.47747 80.7044 1.01047 78.9766 1.01047C77.151 1.01047 75.7818 2.47747 75.7818 4.20526C75.7818 5.93306 77.151 7.40005 78.9766 7.40005ZM15.0156 30.872V30.3178C11.8208 29.6332 10.8102 24.515 10.8102 16.6258C10.8102 8.31285 13.3204 3.84667 16.9716 2.93387V2.37967C7.06124 2.93387 0.573867 8.18245 0.573867 16.6258C0.541267 24.7432 6.34405 30.4156 15.0156 30.872ZM16.1566 30.872C21.4052 30.7742 25.1542 29.8614 27.5666 28.8182V18.321H18.5364V29.6006C17.9822 29.8288 16.939 30.1548 16.2544 30.2852V30.8394C16.287 30.872 16.1566 30.872 16.1566 30.872ZM26.882 9.12785V3.32506C24.9586 2.77087 21.8616 2.41227 18.6668 2.41227V2.96646C21.9594 4.56386 24.3718 6.38946 26.882 9.12785ZM39.6285 30.7742V30.3178C39.3025 30.22 38.8461 29.8614 38.4875 29.5354C37.4769 28.2966 37.3465 25.8842 37.3465 19.951C37.3465 14.1482 37.5747 11.638 38.4875 10.497C38.7157 10.171 39.1721 9.81244 39.6285 9.71464V9.25825C33.4672 9.71465 28.349 13.6918 28.349 19.9836C28.4794 26.3406 33.4672 30.3178 39.6285 30.7742ZM40.7695 30.7742C46.9309 30.3178 51.9513 26.3406 51.9513 19.951C51.9513 13.6918 46.9309 9.68204 40.7695 9.22565V9.68204C41.0955 9.77984 41.5519 10.008 41.9105 10.4644C42.8233 11.7032 43.0515 14.1156 43.0515 19.9184C43.0515 25.7212 42.8233 28.2314 41.9105 29.5028C41.6823 29.8288 41.1281 30.1874 40.7695 30.2852V30.7742ZM52.9619 30.4156H61.5031V0.195472L52.9619 0.977877C52.9619 1.01048 52.9619 30.4156 52.9619 30.4156Z" fill="#B7B6B6"/>
<path d="M73.5976 30.4158V12.5184H77.7052V9.68223H73.5976V4.56405C73.5976 1.95606 75.521 0.912859 77.1184 0.684659V0.228263C71.5438 0.554262 64.926 1.82566 64.926 7.75884V9.68223H62.3181V12.5184H64.926V30.4158H73.5976Z" fill="#B7B6B6"/>
<path d="M115.651 8.67156C118.031 8.67156 119.987 6.74817 119.987 4.33578C119.987 1.92339 118.064 0 115.651 0C113.239 0 111.316 1.92339 111.316 4.33578C111.316 6.74817 113.272 8.67156 115.651 8.67156Z" fill="#B7B6B6"/>
<path d="M131.267 40V39.674C134.559 39.348 138.113 38.0766 138.113 35.3382C138.113 33.7408 136.972 33.1866 135.277 33.1866H126.605C123.312 33.1866 120.9 31.5892 120.9 27.938C120.9 24.9715 123.508 23.3741 125.464 22.4613L125.692 22.6895C125.366 22.9177 125.008 23.2437 125.008 23.9283C125.008 24.7107 125.562 25.0693 126.377 25.0693H135.831C140.623 25.0693 143.361 26.8948 143.361 31.687C143.361 36.1206 138.243 39.5436 131.267 40ZM130.028 40C123.41 40 120.215 38.859 120.215 36.577C120.215 34.8818 122.139 33.969 125.79 33.7408L125.888 33.969C125.431 34.295 124.747 35.11 124.747 36.577C124.747 38.7286 126.898 39.4132 129.865 39.6414V39.9674M131.397 22.9177V22.5917C132.18 22.3635 132.766 20.4401 132.766 16.2021C132.766 11.8663 132.082 9.8125 131.397 9.7147V9.25831C135.277 9.48651 140.395 11.4099 140.395 16.1043C140.395 20.7987 135.277 22.7873 131.397 22.9177ZM130.387 22.9177C126.507 22.6895 121.259 20.7661 121.259 16.2021C121.259 11.6381 126.507 9.4865 130.387 9.3561V9.6821C129.604 9.9103 128.92 11.8337 128.92 16.1695C128.92 20.5053 129.702 22.4287 130.387 22.5591V22.9177ZM141.666 12.1923C140.199 12.1923 138.928 10.9535 138.928 9.3561C138.928 7.75871 140.167 6.51992 141.666 6.51992C143.264 6.51992 144.502 7.75871 144.502 9.3561C144.405 11.0513 143.133 12.1923 141.666 12.1923ZM94.5919 30.4156V29.8614C98.3409 29.5354 100.297 26.3407 100.297 16.6259C100.297 6.48732 98.4713 3.74893 94.4941 3.39033V2.70573C104.176 2.80353 110.468 6.68292 110.468 16.6259C110.533 25.6561 104.502 30.3178 94.5919 30.4156ZM92.9945 30.4156H83.0842V2.70573H92.9945V30.4156ZM119.987 30.4156H111.446V10.3667L119.987 9.58431V30.4156ZM188.382 30.7742C184.405 30.7742 181.438 28.9486 181.438 24.0587V12.6487H178.83V9.6821H181.568V5.11812L190.338 2.05373L190.11 9.6821H195.586V12.6487H190.11V23.2437C190.11 25.7538 191.12 26.6666 193.402 26.6666C194.315 26.6666 195.684 26.3406 196.141 26.1124V26.797C194.902 28.9486 192.261 30.7742 188.382 30.7742ZM170.158 30.7742V30.3178C171.528 30.0896 172.669 29.405 172.669 27.8076C172.669 26.4384 171.886 25.7539 169.702 24.7433L166.964 23.5045C164.454 22.3635 162.172 20.4401 162.172 16.7889C162.172 13.0399 165.823 9.61691 170.941 9.25831V9.7147C169.8 9.8125 168.561 10.3993 168.561 11.9967C168.561 13.4637 169.474 14.1483 170.941 14.8329L174.69 16.5281C176.972 17.5387 178.895 19.7229 178.895 22.6895C179.058 27.7098 176.418 30.546 170.158 30.7742ZM169.115 30.7742C166.964 30.7742 164.225 30.4482 162.628 29.9918V24.6454C164.78 26.9274 167.192 29.4376 169.115 30.3504V30.7742ZM177.917 14.8003C176.092 12.2901 174.266 10.5949 172.114 9.77991V9.22571C174.168 9.22571 176.548 9.6821 177.917 10.1385V14.8003ZM152.033 30.7742C144.633 30.7742 141.438 25.4278 141.438 19.9511C141.438 14.1483 146.002 9.6821 151.935 9.22571V9.6821C150.696 10.0081 150.11 11.2795 150.11 17.0823C150.11 21.8745 152.033 24.4825 156.043 24.4825C158.325 24.4825 160.379 23.9283 161.617 22.8851V23.6675C160.802 26.2102 158.423 30.7742 152.033 30.7742ZM161.389 17.9951H151.12V17.4409L153.956 16.9845C153.956 12.4205 153.402 9.9103 152.587 9.6821V9.22571C158.977 9.5843 161.389 14.1157 161.389 17.9951Z" fill="#B7B6B6"/>
</svg>
