<svg width="151" height="40" viewBox="0 0 151 40" fill="none" xmlns="http://www.w3.org/2000/svg">
<g clip-path="url(#clip0_92_589)">
<path d="M75.3702 16.205C75.3702 16.6045 74.9122 16.8894 74.5199 16.8894C74.1272 16.8894 73.7346 16.6045 73.7346 16.205V7.87416C73.7346 7.53167 74.1272 7.24627 74.5199 7.24627C74.913 7.24627 75.3702 7.53167 75.3702 7.87416V16.205ZM46.6672 14.8353V13.7516C46.6672 10.442 44.6391 9.07284 38.2931 7.75999C36.3958 7.36043 35.6763 6.9614 35.6763 5.76325V5.0212C35.6763 4.4504 36.1996 4.16553 36.6573 4.16553C37.3118 4.16553 37.6386 4.5651 37.6386 5.0212V7.3607H46.3399V5.93422C46.3399 2.05383 44.3118 0 36.1993 0C30.3113 0 25.9279 1.82604 25.9279 5.87714V6.61865C25.9279 10.1568 27.6945 11.7546 34.302 13.1808C36.3958 13.6377 37.1153 13.6945 37.1153 14.95V15.6918C37.1153 16.4333 36.9188 16.7187 36.1338 16.7187C35.2183 16.7187 35.1528 16.2055 35.1528 15.635V13.695H25.9282V14.608C25.9282 19.4015 29.0031 20.8274 36.3961 20.8274C43.396 20.8271 46.6672 19.5148 46.6672 14.8353ZM107.541 20.0846V15.4053H105.971C105.055 15.4053 104.859 15.1775 104.859 14.6641V9.1862H107.475V4.05084H104.859V1.76762H96.746V15.748C96.746 18.8296 98.7749 20.0846 102.961 20.0846H107.541ZM83.4172 14.9489V9.12912C83.4172 5.07775 79.5566 3.76544 74.5197 3.76544C69.3512 3.76544 65.5571 5.07775 65.5571 9.12912V14.9489C65.5571 18.944 69.3518 20.3126 74.5197 20.3126C79.5573 20.3131 83.4172 18.944 83.4172 14.9489ZM125.196 15.1207V14.436C125.196 12.3819 124.15 11.2974 118.196 9.87144C116.56 9.47187 115.84 9.30037 115.84 8.55912V7.81734C115.84 7.41778 116.233 7.24627 116.56 7.24627C117.018 7.24627 117.345 7.41778 117.345 7.81734V9.47187H124.803V8.21637C124.803 4.84996 121.401 3.76544 116.495 3.76544C111.85 3.76544 107.793 4.84943 107.793 8.27318V8.90107C107.793 10.8981 108.513 12.6094 114.99 14.2079C116.56 14.6072 117.345 14.8356 117.345 15.5773V16.3762C117.345 16.7755 117.018 16.8899 116.56 16.8899C116.233 16.8899 115.84 16.7181 115.84 16.3191V14.7214H107.793V15.5773C107.793 18.8869 110.018 20.3708 116.56 20.3708C121.598 20.3702 125.196 19.4004 125.196 15.1207ZM64.9764 15.2919V8.78691C64.9764 4.7358 61.7708 4.05084 58.3035 4.05084H47.2471V22.8241H55.3593V20.0846H57.9107C61.3131 20.0846 64.9764 19.2854 64.9764 15.2919ZM9.48636 39.6565V16.9462H0.52356V39.6567L9.48636 39.6565ZM150.048 39.6565V19.343H141.936V23.6227H139.123C136.113 23.6227 132.384 24.5928 132.384 28.302V34.9204C132.384 38.6293 135.72 39.6565 138.729 39.6565H150.048ZM27.7033 39.6565V20.199H19.5256V39.6565H27.7033ZM18.5713 39.6565V20.199H10.3938V39.6565H18.5713ZM113.952 39.6565V34.9777H112.513C111.663 34.9777 111.466 34.7499 111.466 34.293V28.6439H113.952V23.6227H111.466V21.3401H103.354V35.2631C103.354 38.4583 105.382 39.6565 109.569 39.6565H113.952ZM75.0432 39.6565V34.9777H73.5384C72.7531 34.9777 72.4916 34.7499 72.4916 34.293V28.6439H75.0432V23.6227H72.4916V21.3401H64.3793V35.2631C64.3793 38.4583 66.4074 39.6565 70.5945 39.6565H75.0432ZM131.869 34.5213V33.3803H123.757V35.7763C123.757 36.1759 123.43 36.3474 122.972 36.3474C122.579 36.3474 122.186 36.1759 122.186 35.7763V32.6948H131.869V28.7578C131.869 24.7635 128.074 23.3371 122.971 23.3371C117.868 23.3371 114.138 24.6496 114.138 28.7008V34.4067C114.138 38.5154 117.868 39.8848 122.971 39.8848C128.074 39.8848 131.869 38.6301 131.869 34.5213ZM46.2744 39.6565V23.6227H38.1621V36.0623H37.3118C36.7883 36.0623 36.6573 35.8345 36.6573 35.3776V23.6233H28.545V34.9209C28.545 38.0598 30.9656 39.657 34.891 39.657H46.2744V39.6565ZM64.0606 34.7499V34.0652C64.0606 32.0112 63.0141 30.9266 57.0599 29.5009C55.4243 29.1014 54.7046 28.9301 54.7046 28.1878V27.4469C54.7046 27.0473 55.0973 26.8755 55.4243 26.8755C55.8829 26.8755 56.2096 27.0473 56.2096 27.4469V29.1014H63.9294V27.7891C63.9294 24.4227 60.3305 23.3949 55.4238 23.3949C50.7789 23.3949 46.6573 24.4227 46.6573 27.8461V28.53C46.6573 30.5273 47.3116 32.2392 53.7883 33.8369C55.3583 34.2365 56.1441 34.4648 56.1441 35.2066V36.0054C56.1441 36.4047 55.8171 36.5189 55.3588 36.5189C55.0318 36.5189 54.6393 36.3477 54.6393 35.9484V34.3506H46.5923V35.2066C46.5923 38.5162 48.8169 40 55.3588 40C60.397 39.9997 64.0606 39.0294 64.0606 34.7499ZM56.9297 16.0334C56.9297 16.3759 56.5369 16.7181 56.0144 16.7181H55.3593V7.41725H56.0144C56.5377 7.41725 56.9297 7.75919 56.9297 8.10141V16.0334ZM123.822 29.1577H122.187V27.2743C122.187 26.8752 122.579 26.5901 122.972 26.5901C123.496 26.5901 123.822 26.8752 123.822 27.2743L123.822 29.1577ZM141.936 36.2903H141.346C140.692 36.2903 140.496 36.0623 140.496 35.6624V27.6168C140.496 27.3319 140.692 26.9889 141.346 26.9889H141.936V36.2903ZM96.2311 3.82252C95.1188 3.82252 93.0255 4.22208 92.1749 5.8198V4.05084H84.0624V20.0846H92.1749V11.5825C92.1749 10.2702 93.0907 9.47107 94.661 9.47107H96.2308L96.2311 3.82252ZM102.708 39.6565V28.5298C102.708 25.3346 101.334 23.3368 94.5958 23.3368H89.2963C86.4177 23.3368 84.6514 24.4779 83.7349 26.3039V23.6222H75.6226V39.6559H83.8004V30.9261C83.8004 29.6138 84.7817 28.8146 86.2862 28.8146H93.0249V26.5322H93.745C94.269 26.5322 94.5952 26.8174 94.5952 27.2737V29.3847H91.4546C88.4455 29.3847 84.5854 30.3547 84.5854 34.0639V34.9198C84.5854 38.6287 88.053 39.6559 91.0621 39.6559H102.708V39.6565H102.708ZM94.5958 36.1764H94.0722C93.1565 36.1764 93.0255 35.9486 93.0255 35.4922V33.5526C93.0255 32.9813 93.3525 32.639 94.1377 32.639H94.5958V36.1764Z" fill="#B7B6B6"/>
</g>
<defs>
<clipPath id="clip0_92_589">
<rect width="149.524" height="40" fill="white" transform="translate(0.52356)"/>
</clipPath>
</defs>
</svg>
