<svg width="50" height="50" viewBox="0 0 50 50" fill="none" xmlns="http://www.w3.org/2000/svg">
<circle cx="25" cy="25" r="24" stroke="white" stroke-width="2"/>
<mask id="mask0_92_2261" style="mask-type:alpha" maskUnits="userSpaceOnUse" x="12" y="10" width="30" height="30">
<rect x="12" y="10" width="30" height="30" fill="#D9D9D9"/>
</mask>
<g mask="url(#mask0_92_2261)">
<path d="M15 37V34.8679H35.9931V37H15ZM19.9749 31.4783C18.6068 31.4783 17.4357 30.9912 16.4614 30.017C15.4871 29.0427 15 27.8715 15 26.5034V13H35.9931C36.6997 13 37.3046 13.2516 37.8078 13.7548C38.311 14.258 38.5626 14.8629 38.5626 15.5695V19.123C38.5626 19.8296 38.311 20.4345 37.8078 20.9377C37.3046 21.4408 36.6997 21.6924 35.9931 21.6924H33.4784V26.5034C33.4784 27.8715 32.9912 29.0427 32.017 30.017C31.0427 30.9912 29.8715 31.4783 28.5034 31.4783H19.9749ZM19.9749 29.3463H28.5034C29.2852 29.3463 29.9545 29.0679 30.5112 28.5112C31.0679 27.9545 31.3463 27.2852 31.3463 26.5034V15.1321H17.1321V26.5034C17.1321 27.2852 17.4105 27.9545 17.9672 28.5112C18.5239 29.0679 19.1931 29.3463 19.9749 29.3463ZM33.4784 19.5604H35.9931C36.1207 19.5604 36.2255 19.5194 36.3075 19.4374C36.3895 19.3553 36.4305 19.2505 36.4305 19.123V15.5695C36.4305 15.4419 36.3895 15.3371 36.3075 15.2551C36.2255 15.1731 36.1207 15.1321 35.9931 15.1321H33.4784V19.5604Z" fill="white"/>
</g>
</svg>
