<svg width="50" height="50" viewBox="0 0 50 50" fill="none" xmlns="http://www.w3.org/2000/svg">
<g clip-path="url(#clip0_92_2266)">
<path d="M50 26.1801C49.9716 26.4641 49.9376 26.7482 49.9152 27.0326C49.4285 33.0827 46.7458 38.7463 42.372 42.9575C38.9522 46.2513 34.9196 48.4098 30.274 49.4329C28.1635 49.8998 25.9994 50.0792 23.8407 49.9661C17.6842 49.6378 12.3502 47.3671 7.83885 43.154C4.76977 40.2798 2.58314 36.8275 1.2542 32.8374C0.529474 30.6582 0.115134 28.388 0.0233662 26.0935C-0.159999 21.7378 0.730239 17.6148 2.69408 13.7245C3.78197 11.5702 5.1819 9.58798 6.84867 7.84193C9.78252 4.76007 13.2709 2.55671 17.3138 1.23186C19.5784 0.492619 21.9393 0.0899143 24.3211 0.0366488C24.3784 0.0299287 24.4349 0.0176546 24.4898 0L25.4983 0C25.5372 0.0177086 25.5784 0.0298903 25.6207 0.0361907C26.7874 0.0579577 27.9508 0.166525 29.1014 0.360991C31.5714 0.764884 33.965 1.54414 36.199 2.6717C41.6214 5.40371 45.8722 10.0032 48.1673 15.6216C49.1321 17.9803 49.7225 20.4751 49.917 23.0159C49.9386 23.2935 49.972 23.5702 50 23.8474V26.1801ZM47.9921 25.0014C48.038 12.5985 37.9369 2.03218 25.0082 2.02164C12.2625 2.0111 2.05826 12.3461 1.99408 24.8891C1.92991 37.5078 12.131 47.9742 24.9528 47.9949C37.9259 48.0155 48.0444 37.4212 47.9921 25.0014Z" fill="white"/>
<path d="M20.0221 27.9877C19.8365 27.4308 19.6707 26.8806 19.5249 26.337C19.3791 25.7934 19.2531 25.23 19.147 24.6466L17.8146 25.5415V28.8826L20.0221 27.9877ZM24.1387 12.9331C23.2372 13.8877 22.5179 15.1505 21.981 16.7216C21.444 18.2927 21.1755 19.94 21.1755 21.6635C21.1755 22.7772 21.275 23.871 21.4738 24.9449C21.6727 26.0188 21.9445 26.9403 22.2892 27.7092L26.8036 27.6894C27.1483 26.9204 27.4201 25.9989 27.619 24.925C27.8178 23.8511 27.9173 22.7573 27.9173 21.6437C27.9173 19.9201 27.6521 18.2761 27.1218 16.7116C26.5915 15.1472 25.8755 13.8877 24.974 12.9331C24.9209 12.88 24.858 12.837 24.7851 12.8038C24.7121 12.7707 24.6359 12.7541 24.5563 12.7541C24.4768 12.7541 24.4006 12.7707 24.3276 12.8038C24.2547 12.837 24.1918 12.88 24.1387 12.9331ZM24.5365 22.0812C23.9266 22.0812 23.3996 21.8591 22.9554 21.415C22.5113 20.9708 22.2892 20.4438 22.2892 19.8339C22.2892 19.2241 22.5146 18.6937 22.9654 18.243C23.4162 17.7922 23.9465 17.5668 24.5563 17.5668C25.1662 17.5668 25.6932 17.7889 26.1374 18.233C26.5815 18.6772 26.8036 19.2042 26.8036 19.814C26.8036 20.4239 26.5782 20.9542 26.1274 21.405C25.6767 21.8558 25.1463 22.0812 24.5365 22.0812ZM29.0707 27.9678L31.2981 28.8826L31.2981 25.5415L29.9657 24.6466C29.8596 25.23 29.7303 25.7901 29.5779 26.3271C29.4254 26.864 29.2563 27.4109 29.0707 27.9678ZM25.4314 10.3676C26.9958 11.72 28.1791 13.3805 28.9812 15.3494C29.7834 17.3182 30.1844 19.5621 30.1844 22.0812L32.551 23.6523C32.8692 23.8644 33.1145 24.1362 33.2868 24.4676C33.4592 24.7991 33.5453 25.1504 33.5453 25.5217V30.5332C33.5453 30.931 33.3829 31.2458 33.0581 31.4779C32.7333 31.7099 32.3853 31.7463 32.014 31.5872L27.9571 29.9565H21.1556L17.0987 31.5872C16.7274 31.7463 16.3761 31.7132 16.0446 31.4878C15.7132 31.2624 15.5475 30.9509 15.5475 30.5531L15.5475 25.5415C15.5475 25.1703 15.637 24.8157 15.8159 24.4776C15.9949 24.1395 16.2435 23.8644 16.5617 23.6523L18.9283 22.0812C18.9283 19.5621 19.3293 17.3182 20.1315 15.3494C20.9336 13.3805 22.1169 11.72 23.6813 10.3676C23.8006 10.2748 23.9365 10.1986 24.089 10.1389C24.2415 10.0793 24.3973 10.0494 24.5563 10.0494C24.7154 10.0494 24.8712 10.0793 25.0237 10.1389C25.1762 10.1986 25.3121 10.2748 25.4314 10.3676ZM21.1755 34.1925C21.1755 33.2644 21.507 32.4623 22.1699 31.7861C22.8328 31.1099 23.6283 30.7719 24.5563 30.7719C25.4844 30.7719 26.2799 31.1099 26.9428 31.7861C27.6057 32.4623 27.9372 33.2644 27.9372 34.1925C27.9372 34.8554 27.6687 35.6939 27.1317 36.7082C26.5948 37.7224 25.7363 39.0052 24.5563 40.5563C23.3764 39.0052 22.5179 37.7224 21.981 36.7082C21.444 35.6939 21.1755 34.8554 21.1755 34.1925ZM23.4228 34.1726C23.4228 34.4377 23.5322 34.8123 23.7509 35.2962C23.9697 35.7801 24.2315 36.2276 24.5365 36.6386C24.8414 36.2276 25.1066 35.7834 25.3319 35.3061C25.5573 34.8288 25.67 34.4576 25.67 34.1925C25.67 33.8743 25.564 33.5958 25.3518 33.3572C25.1397 33.1186 24.8745 32.9992 24.5563 32.9992C24.2382 32.9992 23.9697 33.1152 23.7509 33.3473C23.5322 33.5793 23.4228 33.8544 23.4228 34.1726Z" fill="white"/>
</g>
<defs>
<clipPath id="clip0_92_2266">
<rect width="50" height="50" fill="white"/>
</clipPath>
</defs>
</svg>
